<svg width="88" height="44" viewBox="0 0 88 44" fill="none" xmlns="http://www.w3.org/2000/svg">
<g filter="url(#filter0_d_741_82)">
<mask id="path-1-outside-1_741_82" maskUnits="userSpaceOnUse" x="41.037" y="11.9195" width="45" height="24" fill="black">
<rect fill="white" x="41.037" y="11.9195" width="45" height="24"/>
<path d="M42.2255 35.4923V14.0132L44.9462 12.7245H45.0894V29.8361C46.4164 29.3875 47.6717 28.7861 48.8554 28.0319L46.6646 24.896L49.1848 23.6931H49.328L51.1322 26.2849C52.4496 24.6239 53.1083 21.4975 53.1083 16.9057V14.0132L55.829 12.7245H55.9722V16.8485C55.9722 21.5834 54.6739 25.1776 52.0773 27.631L56.7454 34.3038L54.2252 35.4923H54.082L49.8005 29.3779C48.3399 30.1989 46.7696 30.829 45.0894 31.2681V34.2036L42.3687 35.4923H42.2255ZM59.6093 27.4448V27.3016L60.4255 25.5833H61.7572V18.309L68.9885 12.7245C71.165 12.7245 72.9311 13.4166 74.2867 14.8008C75.5754 16.1182 76.2198 17.8126 76.2198 19.8842V34.1749L73.4991 35.4923H73.3559V19.8842C73.3559 18.605 73.0122 17.5692 72.3249 16.7769C71.4753 15.7936 70.3632 15.302 68.9885 15.302C67.5852 15.302 66.473 15.7936 65.6521 16.7769C64.9647 17.5978 64.6211 18.6336 64.6211 19.8842V25.5833H71.3512V25.7265L70.535 27.4448H64.6211V34.2036L61.9004 35.4923H61.7572V27.4448H59.6093ZM81.9475 35.4923V14.0132L84.6682 12.7245H84.8114V34.2036L82.0907 35.4923H81.9475Z"/>
</mask>
<path d="M42.2255 35.4923V14.0132L44.9462 12.7245H45.0894V29.8361C46.4164 29.3875 47.6717 28.7861 48.8554 28.0319L46.6646 24.896L49.1848 23.6931H49.328L51.1322 26.2849C52.4496 24.6239 53.1083 21.4975 53.1083 16.9057V14.0132L55.829 12.7245H55.9722V16.8485C55.9722 21.5834 54.6739 25.1776 52.0773 27.631L56.7454 34.3038L54.2252 35.4923H54.082L49.8005 29.3779C48.3399 30.1989 46.7696 30.829 45.0894 31.2681V34.2036L42.3687 35.4923H42.2255ZM59.6093 27.4448V27.3016L60.4255 25.5833H61.7572V18.309L68.9885 12.7245C71.165 12.7245 72.9311 13.4166 74.2867 14.8008C75.5754 16.1182 76.2198 17.8126 76.2198 19.8842V34.1749L73.4991 35.4923H73.3559V19.8842C73.3559 18.605 73.0122 17.5692 72.3249 16.7769C71.4753 15.7936 70.3632 15.302 68.9885 15.302C67.5852 15.302 66.473 15.7936 65.6521 16.7769C64.9647 17.5978 64.6211 18.6336 64.6211 19.8842V25.5833H71.3512V25.7265L70.535 27.4448H64.6211V34.2036L61.9004 35.4923H61.7572V27.4448H59.6093ZM81.9475 35.4923V14.0132L84.6682 12.7245H84.8114V34.2036L82.0907 35.4923H81.9475Z" fill="url(#paint0_linear_741_82)"/>
<path d="M42.2255 35.4923H41.8182V35.8996H42.2255V35.4923ZM42.2255 14.0132L42.0512 13.6451L41.8182 13.7555V14.0132H42.2255ZM44.9462 12.7245V12.3172H44.8546L44.7719 12.3564L44.9462 12.7245ZM45.0894 12.7245H45.4967V12.3172H45.0894V12.7245ZM45.0894 29.8361H44.6821V30.4038L45.2199 30.222L45.0894 29.8361ZM48.8554 28.0319L49.0743 28.3754L49.4327 28.147L49.1893 27.7986L48.8554 28.0319ZM46.6646 24.896L46.4891 24.5284L46.0555 24.7353L46.3307 25.1292L46.6646 24.896ZM49.1848 23.6931V23.2858H49.0926L49.0093 23.3255L49.1848 23.6931ZM49.328 23.6931L49.6622 23.4604L49.5407 23.2858H49.328V23.6931ZM51.1322 26.2849L50.7979 26.5176L51.1109 26.9673L51.4513 26.538L51.1322 26.2849ZM53.1083 14.0132L52.9339 13.6451L52.701 13.7555V14.0132H53.1083ZM55.829 12.7245V12.3172H55.7374L55.6546 12.3564L55.829 12.7245ZM55.9722 12.7245H56.3795V12.3172H55.9722V12.7245ZM52.0773 27.631L51.7976 27.3349L51.542 27.5764L51.7435 27.8644L52.0773 27.631ZM56.7454 34.3038L56.9191 34.6722L57.3561 34.4661L57.0792 34.0703L56.7454 34.3038ZM54.2252 35.4923V35.8996H54.3164L54.3989 35.8607L54.2252 35.4923ZM54.082 35.4923L53.7484 35.7259L53.87 35.8996H54.082V35.4923ZM49.8005 29.3779L50.1341 29.1443L49.9225 28.8421L49.6009 29.0229L49.8005 29.3779ZM45.0894 31.2681L44.9864 30.874L44.6821 30.9536V31.2681H45.0894ZM45.0894 34.2036L45.2638 34.5717L45.4967 34.4613V34.2036H45.0894ZM42.3687 35.4923V35.8996H42.4603L42.5431 35.8604L42.3687 35.4923ZM42.6328 35.4923V14.0132H41.8182V35.4923H42.6328ZM42.3999 14.3813L45.1206 13.0926L44.7719 12.3564L42.0512 13.6451L42.3999 14.3813ZM44.9462 13.1318H45.0894V12.3172H44.9462V13.1318ZM44.6821 12.7245V29.8361H45.4967V12.7245H44.6821ZM45.2199 30.222C46.5779 29.7628 47.8629 29.1472 49.0743 28.3754L48.6366 27.6884C47.4804 28.425 46.2548 29.0122 44.959 29.4503L45.2199 30.222ZM49.1893 27.7986L46.9984 24.6627L46.3307 25.1292L48.5215 28.2652L49.1893 27.7986ZM46.84 25.2635L49.3602 24.0607L49.0093 23.3255L46.4891 24.5284L46.84 25.2635ZM49.1848 24.1004H49.328V23.2858H49.1848V24.1004ZM48.9937 23.9258L50.7979 26.5176L51.4665 26.0522L49.6622 23.4604L48.9937 23.9258ZM51.4513 26.538C52.1641 25.6393 52.6765 24.3747 53.0128 22.7783C53.3499 21.1784 53.5156 19.2187 53.5156 16.9057H52.701C52.701 19.1845 52.5373 21.0839 52.2157 22.6104C51.8933 24.1404 51.4177 25.2695 50.8131 26.0318L51.4513 26.538ZM53.5156 16.9057V14.0132H52.701V16.9057H53.5156ZM53.2826 14.3813L56.0033 13.0926L55.6546 12.3564L52.9339 13.6451L53.2826 14.3813ZM55.829 13.1318H55.9722V12.3172H55.829V13.1318ZM55.5649 12.7245V16.8485H56.3795V12.7245H55.5649ZM55.5649 16.8485C55.5649 21.5095 54.2886 24.9812 51.7976 27.3349L52.357 27.927C55.0591 25.3739 56.3795 21.6573 56.3795 16.8485H55.5649ZM51.7435 27.8644L56.4117 34.5373L57.0792 34.0703L52.411 27.3975L51.7435 27.8644ZM56.5717 33.9354L54.0515 35.1239L54.3989 35.8607L56.9191 34.6722L56.5717 33.9354ZM54.2252 35.085H54.082V35.8996H54.2252V35.085ZM54.4156 35.2587L50.1341 29.1443L49.4669 29.6116L53.7484 35.7259L54.4156 35.2587ZM49.6009 29.0229C48.1718 29.8261 46.6341 30.4434 44.9864 30.874L45.1924 31.6622C46.9051 31.2145 48.508 30.5717 50.0001 29.733L49.6009 29.0229ZM44.6821 31.2681V34.2036H45.4967V31.2681H44.6821ZM44.9151 33.8355L42.1944 35.1242L42.5431 35.8604L45.2638 34.5717L44.9151 33.8355ZM42.3687 35.085H42.2255V35.8996H42.3687V35.085ZM59.6093 27.4448H59.202V27.8521H59.6093V27.4448ZM59.6093 27.3016L59.2414 27.1269L59.202 27.2098V27.3016H59.6093ZM60.4255 25.5833V25.176H60.168L60.0576 25.4085L60.4255 25.5833ZM61.7572 25.5833V25.9906H62.1645V25.5833H61.7572ZM61.7572 18.309L61.5082 17.9867L61.3499 18.109V18.309H61.7572ZM68.9885 12.7245V12.3172H68.8495L68.7395 12.4021L68.9885 12.7245ZM74.2867 14.8008L74.5778 14.516L74.5777 14.5158L74.2867 14.8008ZM76.2198 34.1749L76.3973 34.5415L76.6271 34.4302V34.1749H76.2198ZM73.4991 35.4923V35.8996H73.5925L73.6766 35.8589L73.4991 35.4923ZM73.3559 35.4923H72.9486V35.8996H73.3559V35.4923ZM72.3249 16.7769L72.0167 17.0432L72.0172 17.0438L72.3249 16.7769ZM65.6521 16.7769L65.9644 17.0383L65.9647 17.0379L65.6521 16.7769ZM64.6211 25.5833H64.2138V25.9906H64.6211V25.5833ZM71.3512 25.5833H71.7585V25.176H71.3512V25.5833ZM71.3512 25.7265L71.7191 25.9012L71.7585 25.8183V25.7265H71.3512ZM70.535 27.4448V27.8521H70.7924L70.9029 27.6196L70.535 27.4448ZM64.6211 27.4448V27.0375H64.2138V27.4448H64.6211ZM64.6211 34.2036L64.7954 34.5717L65.0284 34.4613V34.2036H64.6211ZM61.9004 35.4923V35.8996H61.992L62.0748 35.8604L61.9004 35.4923ZM61.7572 35.4923H61.3499V35.8996H61.7572V35.4923ZM61.7572 27.4448H62.1645V27.0375H61.7572V27.4448ZM60.0166 27.4448V27.3016H59.202V27.4448H60.0166ZM59.9772 27.4764L60.7934 25.758L60.0576 25.4085L59.2414 27.1269L59.9772 27.4764ZM60.4255 25.9906H61.7572V25.176H60.4255V25.9906ZM62.1645 25.5833V18.309H61.3499V25.5833H62.1645ZM62.0062 18.6314L69.2374 13.0468L68.7395 12.4021L61.5082 17.9867L62.0062 18.6314ZM68.9885 13.1318C71.0703 13.1318 72.7265 13.7898 73.9957 15.0858L74.5777 14.5158C73.1357 13.0434 71.2597 12.3172 68.9885 12.3172V13.1318ZM73.9955 15.0856C75.2003 16.3172 75.8125 17.9047 75.8125 19.8842H76.6271C76.6271 17.7205 75.9505 15.9191 74.5778 14.516L73.9955 15.0856ZM75.8125 19.8842V34.1749H76.6271V19.8842H75.8125ZM76.0423 33.8083L73.3216 35.1257L73.6766 35.8589L76.3973 34.5415L76.0423 33.8083ZM73.4991 35.085H73.3559V35.8996H73.4991V35.085ZM73.7632 35.4923V19.8842H72.9486V35.4923H73.7632ZM73.7632 19.8842C73.7632 18.5294 73.3975 17.3917 72.6326 16.51L72.0172 17.0438C72.627 17.7467 72.9486 18.6806 72.9486 19.8842H73.7632ZM72.6331 16.5106C71.7012 15.432 70.4737 14.8947 68.9885 14.8947V15.7093C70.2526 15.7093 71.2494 16.1552 72.0167 17.0432L72.6331 16.5106ZM68.9885 14.8947C67.4775 14.8947 66.2458 15.4303 65.3394 16.5158L65.9647 17.0379C66.7003 16.1569 67.6929 15.7093 68.9885 15.7093V14.8947ZM65.3398 16.5154C64.581 17.4217 64.2138 18.5549 64.2138 19.8842H65.0284C65.0284 18.7123 65.3484 17.774 65.9644 17.0383L65.3398 16.5154ZM64.2138 19.8842V25.5833H65.0284V19.8842H64.2138ZM64.6211 25.9906H71.3512V25.176H64.6211V25.9906ZM70.9439 25.5833V25.7265H71.7585V25.5833H70.9439ZM70.9833 25.5517L70.1671 27.2701L70.9029 27.6196L71.7191 25.9012L70.9833 25.5517ZM70.535 27.0375H64.6211V27.8521H70.535V27.0375ZM64.2138 27.4448V34.2036H65.0284V27.4448H64.2138ZM64.4467 33.8355L61.726 35.1242L62.0748 35.8604L64.7954 34.5717L64.4467 33.8355ZM61.9004 35.085H61.7572V35.8996H61.9004V35.085ZM62.1645 35.4923V27.4448H61.3499V35.4923H62.1645ZM61.7572 27.0375H59.6093V27.8521H61.7572V27.0375ZM81.9475 35.4923H81.5402V35.8996H81.9475V35.4923ZM81.9475 14.0132L81.7732 13.6451L81.5402 13.7555V14.0132H81.9475ZM84.6682 12.7245V12.3172H84.5766L84.4939 12.3564L84.6682 12.7245ZM84.8114 12.7245H85.2187V12.3172H84.8114V12.7245ZM84.8114 34.2036L84.9858 34.5717L85.2187 34.4613V34.2036H84.8114ZM82.0907 35.4923V35.8996H82.1823L82.2651 35.8604L82.0907 35.4923ZM82.3548 35.4923V14.0132H81.5402V35.4923H82.3548ZM82.1219 14.3813L84.8426 13.0926L84.4939 12.3564L81.7732 13.6451L82.1219 14.3813ZM84.6682 13.1318H84.8114V12.3172H84.6682V13.1318ZM84.4041 12.7245V34.2036H85.2187V12.7245H84.4041ZM84.6371 33.8355L81.9164 35.1242L82.2651 35.8604L84.9858 34.5717L84.6371 33.8355ZM82.0907 35.085H81.9475V35.8996H82.0907V35.085Z" fill="url(#paint1_linear_741_82)" mask="url(#path-1-outside-1_741_82)"/>
</g>
<g filter="url(#filter1_i_741_82)">
<path d="M84.214 11.8185L81.1615 13.2473L80.3475 11.2061L84.214 8.14426L85.6385 9.57312L84.8245 11.8185H84.214Z" fill="#D21A1A"/>
</g>
<g filter="url(#filter2_d_741_82)">
<path fill-rule="evenodd" clip-rule="evenodd" d="M17.1019 39.6373C16.1641 39.4376 15.2525 39.2435 14.5916 37.7572C15.47 37.8181 18.0426 37.94 18.6073 37.1478C18.7955 36.8432 19.0465 36.7213 19.2975 36.7213V36.7214C19.5485 36.7214 19.7995 36.8432 19.9877 37.1479C20.5524 37.94 23.125 37.8181 24.0034 37.7572C23.3425 39.2435 22.4309 39.4377 21.4931 39.6374C20.7393 39.7979 19.9685 39.9621 19.2975 40.8038V40.8037C18.6264 39.962 17.8557 39.7979 17.1019 39.6373Z" fill="#FFF2A1"/>
<path d="M14.5916 37.7572L14.6057 37.554L14.2679 37.5306L14.4055 37.8399L14.5916 37.7572ZM17.1019 39.6373L17.0595 39.8365L17.0595 39.8365L17.1019 39.6373ZM18.6073 37.1478L18.7735 37.2663L18.7806 37.2549L18.6073 37.1478ZM19.2975 36.7213H19.5012V36.5177H19.2975V36.7213ZM19.2975 36.7214H19.0938V36.925L19.2975 36.925L19.2975 36.7214ZM19.9877 37.1479L19.8141 37.2552L19.8219 37.2661L19.9877 37.1479ZM24.0034 37.7572L24.1895 37.8399L24.3271 37.5306L23.9893 37.554L24.0034 37.7572ZM21.4931 39.6374L21.5355 39.8366L21.5355 39.8366L21.4931 39.6374ZM19.2975 40.8038H19.0938V41.3859L19.4567 40.9307L19.2975 40.8038ZM19.2975 40.8037H19.5011V40.7325L19.4567 40.6768L19.2975 40.8037ZM14.4055 37.8399C14.7499 38.6144 15.1683 39.0696 15.6373 39.3539C16.0991 39.6338 16.5953 39.7377 17.0595 39.8365L17.1443 39.4382C16.6707 39.3373 16.2422 39.2442 15.8485 39.0056C15.462 38.7713 15.0942 38.3862 14.7777 37.6744L14.4055 37.8399ZM18.4415 37.0296C18.3408 37.1709 18.1291 37.2952 17.8073 37.3905C17.4927 37.4837 17.1069 37.5393 16.7021 37.5693C15.8934 37.6291 15.0423 37.5843 14.6057 37.554L14.5775 37.9603C15.0193 37.991 15.8937 38.0375 16.7321 37.9755C17.1508 37.9445 17.5689 37.8859 17.923 37.7811C18.2698 37.6783 18.5915 37.5209 18.7731 37.2661L18.4415 37.0296ZM19.2975 36.5177C18.9702 36.5177 18.6562 36.6812 18.434 37.0408L18.7806 37.2549C18.9348 37.0052 19.1229 36.925 19.2975 36.925V36.5177ZM19.5012 36.7214V36.7213H19.0938V36.7214H19.5012ZM19.2975 36.925C19.4721 36.925 19.6602 37.0052 19.8144 37.2549L20.1609 37.0408C19.9387 36.6812 19.6248 36.5177 19.2975 36.5177L19.2975 36.925ZM19.8219 37.2661C20.0035 37.5209 20.3252 37.6784 20.672 37.7811C21.0261 37.886 21.4442 37.9446 21.8629 37.9755C22.7013 38.0376 23.5757 37.991 24.0175 37.9604L23.9893 37.554C23.5527 37.5843 22.7016 37.6292 21.8929 37.5693C21.4881 37.5394 21.1023 37.4837 20.7877 37.3906C20.4659 37.2953 20.2542 37.1709 20.1535 37.0297L19.8219 37.2661ZM23.8173 37.6745C23.5008 38.3863 23.133 38.7713 22.7465 39.0056C22.3528 39.2443 21.9243 39.3373 21.4507 39.4382L21.5355 39.8366C21.9997 39.7377 22.4959 39.6338 22.9576 39.3539C23.4267 39.0696 23.8451 38.6144 24.1895 37.8399L23.8173 37.6745ZM21.4507 39.4382C20.6947 39.5992 19.858 39.774 19.1382 40.6768L19.4567 40.9307C20.0791 40.1501 20.7838 39.9967 21.5355 39.8366L21.4507 39.4382ZM19.5011 40.8038V40.8037H19.0938V40.8038H19.5011ZM17.0595 39.8365C17.8112 39.9966 18.5159 40.1501 19.1382 40.9307L19.4567 40.6768C18.737 39.774 17.9002 39.5991 17.1443 39.4382L17.0595 39.8365Z" fill="url(#paint2_linear_741_82)"/>
<path fill-rule="evenodd" clip-rule="evenodd" d="M14.469 30.9166C14.2146 31.2355 13.515 32.894 14.9777 33.1492C16.6536 33.4374 18.5605 34.2085 19.2975 34.6163L19.2975 34.4127L19.2976 34.6163C20.0346 34.2085 21.9415 33.4374 23.6174 33.1492C25.08 32.894 24.3805 31.2356 24.1261 30.9166C24.6349 31.108 26.0975 32.5113 24.5077 33.8509C23.9318 34.3323 23.3558 34.414 22.6979 34.5074C22.4841 34.5378 22.2615 34.5694 22.0275 34.6163C20.7557 34.8715 19.9132 35.2703 20.6285 36.0834C21.5824 37.1678 23.8717 37.423 25.5252 36.0834C25.6966 35.9445 25.8373 35.8155 25.9686 35.695C26.595 35.1203 27.008 34.7414 29.5316 34.425C29.5952 33.298 30.3837 30.7763 33.0292 29.7046C36.3361 28.3651 36.9085 23.9637 36.4633 22.2414C35.6154 23.7298 33.3345 26.0432 30.9942 23.3896C29.3068 21.4763 30.2856 20.1148 31.3428 18.644C32.1184 17.565 32.9363 16.4272 32.7749 14.9696C32.3933 11.525 31.3758 9.73897 30.2947 9.10109C30.4855 10.3131 29.6588 18.6693 24.1261 13.3111C24.1261 13.4777 24.1225 13.631 24.1191 13.776L24.1191 13.7762C24.0977 14.6863 24.084 15.2702 25.0164 16.7557C24.851 16.7099 24.6434 16.6717 24.4141 16.6296C22.9389 16.3586 20.5644 15.9223 22.7316 12.2267C24.0035 10.0579 24.422 8.14427 23.4312 5.91169C22.7286 4.32857 20.8874 2.97744 19.2976 1.89304L19.2974 1.89294C19.1089 1.51526 17.0467 1.0755 16.2184 1.00271C16.2067 1.00088 16.1959 1 16.186 1L16.2184 1.00271C16.4811 1.04392 17.1832 1.56736 18.1574 3.42395C19.258 5.52142 18.311 5.85168 17.3355 6.19191L17.3355 6.19191C17.1836 6.24486 17.0311 6.29806 16.8855 6.3582C15.8044 6.80471 13.7058 7.9529 14.6597 10.1217C16.7456 14.6124 14.8081 16.4154 13.5786 16.7557C14.5111 15.2702 14.4974 14.6863 14.476 13.7762C14.4726 13.6311 14.469 13.4777 14.469 13.3111C8.93631 18.6693 8.10958 10.3131 8.30036 9.10108C7.21927 9.73897 6.20177 11.525 5.8202 14.9696C5.65874 16.4272 6.47664 17.565 7.25226 18.644C8.30952 20.1148 9.28823 21.4763 7.60083 23.3896C5.26058 26.0432 2.97969 23.7298 2.13177 22.2414C1.68662 23.9637 2.25896 28.3651 5.56583 29.7046C8.21133 30.7763 8.99989 33.298 9.06349 34.4249C11.5871 34.7414 12.0001 35.1203 12.6265 35.695C12.7578 35.8155 12.8985 35.9445 13.0699 36.0834C14.7233 37.423 17.0127 37.1678 17.9666 36.0834C18.6819 35.2703 17.8394 34.8715 16.5675 34.6163C16.3335 34.5694 16.111 34.5378 15.8972 34.5074C15.2392 34.414 14.6633 34.3323 14.0874 33.8509C12.4976 32.5113 13.9602 31.108 14.469 30.9166ZM15.1004 26.7066C16.1688 28.1354 15.4183 29.5133 14.9096 30.0236C15.0113 29.6664 14.4432 28.8116 14.1465 28.4289V29.8322C13.2282 29.4187 12.3155 29.1381 11.4848 28.8827C9.49645 28.2714 7.97789 27.8046 7.97789 26.0049C8.35945 26.4514 8.9318 26.5152 9.50414 26.5152C9.12257 26.3239 8.42304 24.4102 9.56773 23.5172C10.4885 25.6162 10.9961 25.8641 12.0694 26.3884C12.627 26.6607 13.3372 27.0075 14.3373 27.7272C14.9909 28.1975 15.1216 27.1106 15.1004 26.7066ZM23.5929 30.0236C23.0842 29.5133 22.3338 28.1354 23.4021 26.7066C23.3809 27.1106 23.5117 28.1975 24.1653 27.7272C25.1653 27.0075 25.8756 26.6607 26.4331 26.3884C27.5064 25.8641 28.014 25.6162 28.9348 23.5172C30.0795 24.4102 29.3799 26.3239 28.9984 26.5152C29.5707 26.5152 30.1431 26.4514 30.5246 26.0049C30.5246 27.8046 29.0061 28.2714 27.0177 28.8827C26.187 29.1381 25.2743 29.4187 24.356 29.8322V28.4289C24.0593 28.8116 23.4912 29.6664 23.5929 30.0236Z" fill="#FFF2A1"/>
<path d="M14.9777 33.1492L14.9427 33.3498L14.9432 33.3499L14.9777 33.1492ZM14.469 30.9166L14.6282 31.0436L15.089 30.4658L14.3973 30.726L14.469 30.9166ZM19.2975 34.6163L19.1989 34.7945L19.5011 34.9617L19.5011 34.6163L19.2975 34.6163ZM19.2975 34.4127L19.5012 34.4126L19.0939 34.4127L19.2975 34.4127ZM19.2976 34.6163L19.0939 34.6164L19.094 34.9617L19.3962 34.7945L19.2976 34.6163ZM23.6174 33.1492L23.6519 33.3499L23.6524 33.3498L23.6174 33.1492ZM24.1261 30.9166L24.1978 30.726L23.5061 30.4658L23.9669 31.0436L24.1261 30.9166ZM24.5077 33.8509L24.6383 34.0071L24.6389 34.0066L24.5077 33.8509ZM22.6979 34.5074L22.7265 34.7091L22.7265 34.7091L22.6979 34.5074ZM22.0275 34.6163L21.9875 34.4166L21.9875 34.4166L22.0275 34.6163ZM20.6285 36.0834L20.7814 35.9489L20.7814 35.9489L20.6285 36.0834ZM25.5252 36.0834L25.397 35.9252L25.397 35.9252L25.5252 36.0834ZM25.9686 35.695L26.1063 35.8451L26.1063 35.8451L25.9686 35.695ZM29.5316 34.425L29.5569 34.627L29.7254 34.6059L29.7349 34.4364L29.5316 34.425ZM33.0292 29.7046L32.9528 29.5159L32.9528 29.5159L33.0292 29.7046ZM36.4633 22.2414L36.6605 22.1905L36.5348 21.7044L36.2863 22.1406L36.4633 22.2414ZM30.9942 23.3896L30.8415 23.5243L30.8415 23.5243L30.9942 23.3896ZM31.3428 18.644L31.1775 18.5252L31.1775 18.5252L31.3428 18.644ZM32.7749 14.9696L32.9773 14.9472L32.9773 14.9472L32.7749 14.9696ZM30.2947 9.10109L30.3982 8.92569L30.0264 8.70632L30.0935 9.13276L30.2947 9.10109ZM24.1261 13.3111L24.2678 13.1648L23.9225 12.8304V13.3111H24.1261ZM24.1191 13.776L24.3227 13.7827L24.3227 13.7808L24.1191 13.776ZM24.1191 13.7762L23.9156 13.7695L23.9155 13.7714L24.1191 13.7762ZM25.0164 16.7557L24.9621 16.9519L25.468 17.0919L25.1889 16.6474L25.0164 16.7557ZM24.4141 16.6296L24.3773 16.8299L24.3773 16.8299L24.4141 16.6296ZM22.7316 12.2267L22.556 12.1237L22.556 12.1237L22.7316 12.2267ZM23.4312 5.91169L23.245 5.9943L23.245 5.9943L23.4312 5.91169ZM19.2976 1.89304L19.4123 1.72479L19.4117 1.72433L19.2976 1.89304ZM19.2974 1.89294L19.1152 1.98391L19.1391 2.03172L19.1834 2.06165L19.2974 1.89294ZM16.186 1V0.796346L16.169 1.20295L16.186 1ZM18.1574 3.42395L17.977 3.51857L17.977 3.51857L18.1574 3.42395ZM17.3355 6.19191L17.3999 6.38513L17.4026 6.3842L17.3355 6.19191ZM17.3355 6.19191L17.2711 5.99869L17.2684 5.99961L17.3355 6.19191ZM16.8855 6.3582L16.8078 6.16997L16.8078 6.16997L16.8855 6.3582ZM14.6597 10.1217L14.4733 10.2037L14.475 10.2075L14.6597 10.1217ZM13.5786 16.7557L13.4061 16.6474L13.1271 17.0919L13.6329 16.9519L13.5786 16.7557ZM14.476 13.7762L14.6796 13.7714L14.6796 13.7714L14.476 13.7762ZM14.469 13.3111H14.6726V12.8304L14.3273 13.1648L14.469 13.3111ZM8.30036 9.10108L8.50153 9.13275L8.56866 8.70631L8.19687 8.92569L8.30036 9.10108ZM5.8202 14.9696L5.61779 14.9472L5.61779 14.9472L5.8202 14.9696ZM7.25226 18.644L7.41763 18.5251L7.41763 18.5251L7.25226 18.644ZM7.60083 23.3896L7.44809 23.2549L7.44809 23.2549L7.60083 23.3896ZM2.13177 22.2414L2.30873 22.1406L2.06023 21.7044L1.9346 22.1905L2.13177 22.2414ZM5.56583 29.7046L5.64229 29.5159L5.64229 29.5159L5.56583 29.7046ZM9.06349 34.4249L8.86016 34.4364L8.86972 34.6059L9.03815 34.627L9.06349 34.4249ZM12.6265 35.695L12.7642 35.545L12.7642 35.545L12.6265 35.695ZM13.0699 36.0834L13.1981 35.9252L13.1981 35.9252L13.0699 36.0834ZM17.9666 36.0834L17.8137 35.9489L17.8137 35.9489L17.9666 36.0834ZM16.5675 34.6163L16.5275 34.816L16.5275 34.816L16.5675 34.6163ZM15.8972 34.5074L15.8686 34.7091L15.8686 34.7091L15.8972 34.5074ZM14.0874 33.8509L13.9562 34.0066L13.9568 34.0071L14.0874 33.8509ZM14.9096 30.0236L14.7137 29.9678L14.4981 30.7248L15.0538 30.1674L14.9096 30.0236ZM15.1004 26.7066L15.2635 26.5846L14.8619 26.0475L14.897 26.7173L15.1004 26.7066ZM14.1465 28.4289L14.3074 28.3041L13.9428 27.8339V28.4289H14.1465ZM14.1465 29.8322L14.0629 30.0179L14.3501 30.1473V29.8322H14.1465ZM11.4848 28.8827L11.425 29.0774L11.425 29.0774L11.4848 28.8827ZM7.97789 26.0049L8.13271 25.8726L7.77424 25.4531V26.0049H7.97789ZM9.50414 26.5152V26.7189L9.59544 26.3332L9.50414 26.5152ZM9.56773 23.5172L9.75422 23.4354L9.64899 23.1955L9.44246 23.3566L9.56773 23.5172ZM12.0694 26.3884L11.98 26.5714L11.98 26.5714L12.0694 26.3884ZM14.3373 27.7272L14.2183 27.8925L14.2183 27.8925L14.3373 27.7272ZM23.4021 26.7066L23.6055 26.7173L23.6407 26.0475L23.239 26.5846L23.4021 26.7066ZM23.5929 30.0236L23.4487 30.1674L24.0044 30.7248L23.7888 29.9678L23.5929 30.0236ZM24.1653 27.7272L24.2842 27.8925L24.2842 27.8925L24.1653 27.7272ZM26.4331 26.3884L26.5225 26.5714L26.5225 26.5714L26.4331 26.3884ZM28.9348 23.5172L29.0601 23.3566L28.8535 23.1955L28.7483 23.4354L28.9348 23.5172ZM28.9984 26.5152L28.9071 26.3332L28.9984 26.7189V26.5152ZM30.5246 26.0049H30.7283V25.4531L30.3698 25.8726L30.5246 26.0049ZM27.0177 28.8827L27.0776 29.0774L27.0776 29.0774L27.0177 28.8827ZM24.356 29.8322H24.1524V30.1473L24.4397 30.0179L24.356 29.8322ZM24.356 28.4289H24.5597V27.8339L24.1951 28.3041L24.356 28.4289ZM15.0127 32.9486C14.6887 32.892 14.5115 32.764 14.4127 32.6215C14.3107 32.4744 14.2723 32.2829 14.2829 32.0668C14.2934 31.8513 14.3523 31.6279 14.4256 31.4372C14.5 31.2435 14.5824 31.101 14.6282 31.0436L14.3097 30.7896C14.2283 30.8917 14.1279 31.0761 14.0453 31.2911C13.9616 31.5089 13.8893 31.7759 13.876 32.0468C13.8628 32.3172 13.9078 32.608 14.078 32.8536C14.2515 33.1038 14.5354 33.2787 14.9427 33.3498L15.0127 32.9486ZM19.3961 34.4381C18.6409 34.0202 16.7125 33.2408 15.0122 32.9485L14.9432 33.3499C16.5947 33.6339 18.48 34.3967 19.1989 34.7945L19.3961 34.4381ZM19.0939 34.4127L19.0938 34.6163L19.5011 34.6163L19.5012 34.4127L19.0939 34.4127ZM19.5012 34.6162L19.5012 34.4126L19.0939 34.4127L19.0939 34.6164L19.5012 34.6162ZM23.5829 32.9485C21.8826 33.2409 19.9542 34.0202 19.199 34.4381L19.3962 34.7945C20.115 34.3967 22.0004 33.6339 23.6519 33.3499L23.5829 32.9485ZM23.9669 31.0436C24.0127 31.101 24.0951 31.2435 24.1695 31.4372C24.2428 31.628 24.3017 31.8513 24.3122 32.0668C24.3228 32.2829 24.2844 32.4744 24.1823 32.6215C24.0835 32.764 23.9063 32.8921 23.5824 32.9486L23.6524 33.3498C24.0597 33.2788 24.3436 33.1038 24.5171 32.8536C24.6873 32.6081 24.7323 32.3172 24.719 32.0469C24.7058 31.7759 24.6334 31.5089 24.5497 31.2911C24.4672 31.0761 24.3667 30.8917 24.2853 30.7896L23.9669 31.0436ZM24.6389 34.0066C25.0619 33.6502 25.2974 33.2759 25.3882 32.9023C25.479 32.5287 25.4201 32.1766 25.2913 31.8735C25.1632 31.5722 24.9646 31.3153 24.7662 31.1217C24.5708 30.931 24.3607 30.7872 24.1978 30.726L24.0544 31.1072C24.146 31.1417 24.3095 31.2451 24.4817 31.4132C24.651 31.5784 24.814 31.792 24.9165 32.0329C25.0181 32.272 25.0586 32.5338 24.9924 32.8061C24.9263 33.0783 24.7484 33.3818 24.3765 33.6951L24.6389 34.0066ZM22.7265 34.7091C23.3821 34.616 24.013 34.5298 24.6383 34.0071L24.3771 33.6946C23.8505 34.1347 23.3296 34.2121 22.6693 34.3058L22.7265 34.7091ZM22.0676 34.816C22.2951 34.7704 22.512 34.7395 22.7265 34.7091L22.6693 34.3058C22.4561 34.3361 22.228 34.3684 21.9875 34.4166L22.0676 34.816ZM20.7814 35.9489C20.6173 35.7624 20.5711 35.6306 20.5701 35.5448C20.5693 35.4688 20.6038 35.3881 20.7131 35.2972C20.826 35.2032 21.0018 35.1138 21.2388 35.0312C21.4733 34.9494 21.7544 34.8788 22.0676 34.816L21.9875 34.4166C21.6647 34.4814 21.3636 34.5563 21.1047 34.6465C20.8484 34.7359 20.6199 34.8448 20.4525 34.9841C20.2816 35.1264 20.1602 35.3139 20.1628 35.5493C20.1653 35.7749 20.282 35.9979 20.4756 36.2179L20.7814 35.9489ZM25.397 35.9252C24.6115 36.5616 23.6749 36.8192 22.8217 36.7889C21.9642 36.7584 21.2123 36.4388 20.7814 35.9489L20.4756 36.2179C20.9985 36.8125 21.8683 37.1626 22.8073 37.1959C23.7506 37.2294 24.7854 36.9448 25.6534 36.2417L25.397 35.9252ZM25.8309 35.545C25.6994 35.6656 25.563 35.7907 25.397 35.9252L25.6534 36.2417C25.8303 36.0984 25.9751 35.9654 26.1063 35.8451L25.8309 35.545ZM29.5063 34.2229C28.2395 34.3817 27.4834 34.5582 26.9606 34.775C26.4286 34.9957 26.1467 35.2552 25.8309 35.545L26.1063 35.8451C26.4169 35.5601 26.6547 35.3428 27.1167 35.1512C27.5879 34.9558 28.3001 34.7846 29.5569 34.627L29.5063 34.2229ZM32.9528 29.5159C30.2102 30.6268 29.3946 33.2376 29.3283 34.4135L29.7349 34.4364C29.7958 33.3585 30.5573 30.9257 33.1057 29.8934L32.9528 29.5159ZM36.2661 22.2924C36.477 23.1082 36.451 24.5983 35.9603 26.0514C35.4711 27.5002 34.5329 28.8758 32.9528 29.5159L33.1057 29.8934C34.8325 29.1939 35.8339 27.699 36.3462 26.1817C36.8572 24.6687 36.8948 23.0969 36.6605 22.1905L36.2661 22.2924ZM30.8415 23.5243C31.4471 24.211 32.063 24.592 32.6695 24.7371C33.277 24.8824 33.8541 24.7858 34.3715 24.5547C35.3958 24.0972 36.2056 23.1052 36.6403 22.3422L36.2863 22.1406C35.8731 22.8661 35.1185 23.775 34.2053 24.1828C33.754 24.3844 33.269 24.4617 32.7642 24.3409C32.2584 24.2199 31.7115 23.8951 31.147 23.2549L30.8415 23.5243ZM31.1775 18.5252C30.6557 19.251 30.1169 19.9948 29.9403 20.8076C29.7579 21.6468 29.9642 22.5295 30.8415 23.5243L31.147 23.2549C30.3369 22.3364 30.1889 21.5817 30.3383 20.8941C30.4935 20.1801 30.9727 19.5078 31.5082 18.7629L31.1775 18.5252ZM32.5725 14.992C32.724 16.3599 31.9614 17.4345 31.1775 18.5252L31.5082 18.7629C32.2754 17.6955 33.1487 16.4946 32.9773 14.9472L32.5725 14.992ZM30.1912 9.27649C31.1847 9.86269 32.1924 11.5611 32.5725 14.992L32.9773 14.9472C32.5942 11.489 31.5669 9.61525 30.3982 8.92569L30.1912 9.27649ZM23.9844 13.4574C25.3805 14.8094 26.5233 15.3413 27.4625 15.2875C28.415 15.233 29.0816 14.5829 29.5346 13.769C29.9883 12.954 30.2517 11.9368 30.3906 11.0554C30.5288 10.1783 30.5486 9.40393 30.4959 9.06942L30.0935 9.13276C30.1363 9.40424 30.1242 10.1288 29.9882 10.992C29.8529 11.8508 29.5995 12.8151 29.1788 13.5709C28.7574 14.3277 28.1918 14.8378 27.4392 14.8809C26.6733 14.9248 25.6381 14.4919 24.2678 13.1648L23.9844 13.4574ZM24.3227 13.7808C24.3261 13.636 24.3298 13.4804 24.3298 13.3111H23.9225C23.9225 13.4749 23.9189 13.626 23.9155 13.7712L24.3227 13.7808ZM24.3226 13.7828L24.3227 13.7827L23.9156 13.7693L23.9156 13.7695L24.3226 13.7828ZM25.1889 16.6474C24.7286 15.9141 24.511 15.4174 24.4077 15.0011C24.3047 14.5857 24.312 14.238 24.3227 13.7809L23.9155 13.7714C23.9049 14.2245 23.8945 14.6238 24.0124 15.0992C24.1301 15.5737 24.3718 16.1117 24.844 16.8639L25.1889 16.6474ZM24.3773 16.8299C24.6096 16.8726 24.8073 16.9091 24.9621 16.9519L25.0708 16.5594C24.8948 16.5107 24.6772 16.4709 24.4509 16.4293L24.3773 16.8299ZM22.556 12.1237C21.4644 13.9851 21.4539 15.1312 22.0509 15.8432C22.3382 16.186 22.7451 16.3971 23.1576 16.5395C23.5707 16.6821 24.0109 16.7626 24.3773 16.8299L24.4509 16.4293C24.0797 16.3611 23.6698 16.2854 23.2905 16.1545C22.9107 16.0234 22.5828 15.8437 22.363 15.5815C21.9457 15.0838 21.8316 14.164 22.9073 12.3297L22.556 12.1237ZM23.245 5.9943C23.7262 7.07861 23.8624 8.0772 23.7281 9.0657C23.5933 10.0579 23.1843 11.0522 22.556 12.1237L22.9073 12.3297C23.5508 11.2324 23.987 10.1855 24.1317 9.12053C24.2769 8.05187 24.1269 6.97734 23.6173 5.82908L23.245 5.9943ZM19.1828 2.06128C19.9767 2.60275 20.8249 3.20525 21.561 3.86681C22.2985 4.52968 22.9105 5.24054 23.245 5.9943L23.6173 5.82908C23.2493 4.99972 22.5894 4.24346 21.8332 3.56387C21.0756 2.88299 20.2083 2.26773 19.4123 1.72479L19.1828 2.06128ZM19.1834 2.06165L19.1835 2.06174L19.4117 1.72433L19.4115 1.72424L19.1834 2.06165ZM16.2006 1.20558C16.6007 1.24075 17.3119 1.36642 17.9468 1.53066C18.264 1.61272 18.5554 1.70269 18.776 1.79317C18.8866 1.83855 18.9738 1.88176 19.0358 1.92114C19.104 1.96445 19.1173 1.98798 19.1152 1.98391L19.4797 1.80198C19.4305 1.70349 19.3381 1.63066 19.2542 1.57734C19.1641 1.5201 19.0527 1.46643 18.9306 1.41633C18.6856 1.31585 18.3743 1.22052 18.0488 1.13633C17.3984 0.968069 16.6644 0.837466 16.2362 0.79984L16.2006 1.20558ZM16.25 0.801519C16.2292 0.798268 16.2078 0.796346 16.186 0.796346V1.20365L16.1868 1.2039L16.25 0.801519ZM16.169 1.20295L16.2014 1.20566L16.2354 0.799766L16.203 0.797055L16.169 1.20295ZM18.3377 3.32932C17.8455 2.39128 17.4174 1.78092 17.0727 1.39658C16.9003 1.20441 16.7464 1.06606 16.6132 0.971347C16.4835 0.879165 16.3602 0.818813 16.25 0.801519L16.1868 1.2039C16.2079 1.20721 16.2709 1.22775 16.3772 1.30332C16.4799 1.37635 16.6117 1.49263 16.7695 1.66854C17.085 2.02037 17.4951 2.60002 17.977 3.51857L18.3377 3.32932ZM17.4026 6.3842C17.643 6.30035 17.9009 6.21089 18.1262 6.09045C18.3536 5.96894 18.5652 5.80717 18.7018 5.56787C18.9793 5.08188 18.8922 4.38606 18.3377 3.32932L17.977 3.51857C18.5231 4.55931 18.5129 5.07735 18.3481 5.36592C18.2636 5.5139 18.1244 5.62958 17.9342 5.73123C17.742 5.83395 17.5157 5.91335 17.2684 5.99961L17.4026 6.3842ZM17.3999 6.38511L17.3999 6.38511L17.2711 5.9987L17.2711 5.99871L17.3999 6.38511ZM16.9633 6.54643C17.1027 6.48885 17.2497 6.4375 17.4025 6.3842L17.2684 5.99961C17.1176 6.05222 16.9596 6.10727 16.8078 6.16997L16.9633 6.54643ZM14.8461 10.0397C14.6221 9.53028 14.5822 9.09361 14.6531 8.71938C14.7243 8.3436 14.9102 8.01502 15.1623 7.72867C15.6712 7.1507 16.4304 6.7665 16.9633 6.54643L16.8078 6.16997C16.2595 6.39641 15.4289 6.80956 14.8566 7.45952C14.5682 7.78712 14.3407 8.18015 14.253 8.64357C14.1649 9.10855 14.2204 9.62871 14.4733 10.2037L14.8461 10.0397ZM13.6329 16.9519C14.3054 16.7659 15.1525 16.1865 15.5542 15.0637C15.9558 13.9413 15.9007 12.31 14.8444 10.0359L14.475 10.2075C15.5046 12.4241 15.5238 13.9396 15.1707 14.9265C14.8177 15.913 14.0814 16.4052 13.5243 16.5594L13.6329 16.9519ZM14.2724 13.7809C14.2831 14.238 14.2904 14.5857 14.1873 15.0011C14.0841 15.4174 13.8665 15.9141 13.4061 16.6474L13.7511 16.8639C14.2233 16.1117 14.465 15.5737 14.5827 15.0992C14.7005 14.6238 14.6902 14.2245 14.6796 13.7714L14.2724 13.7809ZM14.2653 13.3111C14.2653 13.4804 14.269 13.6361 14.2724 13.7809L14.6796 13.7714C14.6762 13.6261 14.6726 13.475 14.6726 13.3111H14.2653ZM8.09918 9.06942C8.04653 9.40392 8.0663 10.1783 8.20452 11.0554C8.34342 11.9368 8.60675 12.954 9.06043 13.769C9.51352 14.5829 10.18 15.233 11.1325 15.2875C12.0717 15.3413 13.2146 14.8094 14.6106 13.4574L14.3273 13.1648C12.957 14.4919 11.9218 14.9248 11.1558 14.8809C10.4033 14.8378 9.83764 14.3277 9.41631 13.5708C8.99558 12.815 8.7422 11.8508 8.60686 10.992C8.47083 10.1288 8.4588 9.40423 8.50153 9.13275L8.09918 9.06942ZM6.02262 14.992C6.40267 11.5611 7.41034 9.86268 8.40385 9.27648L8.19687 8.92569C7.02819 9.61525 6.00086 11.489 5.61779 14.9472L6.02262 14.992ZM7.41763 18.5251C6.63364 17.4345 5.8711 16.3599 6.02262 14.992L5.61779 14.9472C5.44637 16.4946 6.31963 17.6955 7.0869 18.7629L7.41763 18.5251ZM7.75357 23.5243C8.6309 22.5295 8.83718 21.6468 8.6548 20.8076C8.47815 19.9948 7.93941 19.251 7.41763 18.5251L7.0869 18.7629C7.62237 19.5078 8.10162 20.1801 8.25679 20.8941C8.40623 21.5817 8.25815 22.3364 7.44809 23.2549L7.75357 23.5243ZM1.95482 22.3422C2.38947 23.1052 3.19925 24.0972 4.22362 24.5547C4.74102 24.7858 5.31805 24.8824 5.92561 24.7371C6.5321 24.592 7.148 24.211 7.75357 23.5243L7.44809 23.2549C6.88353 23.8951 6.33672 24.2199 5.83086 24.3409C5.32606 24.4617 4.84108 24.3844 4.38973 24.1828C3.47661 23.775 2.722 22.866 2.30873 22.1406L1.95482 22.3422ZM5.64229 29.5159C4.06219 28.8758 3.12398 27.5002 2.63474 26.0514C2.14406 24.5983 2.11808 23.1082 2.32895 22.2924L1.9346 22.1905C1.70031 23.0969 1.73792 24.6687 2.24884 26.1817C2.76121 27.699 3.76261 29.1939 5.48937 29.8934L5.64229 29.5159ZM9.26682 34.4135C9.20046 33.2376 8.38486 30.6268 5.64229 29.5159L5.48937 29.8934C8.03781 30.9257 8.79933 33.3584 8.86016 34.4364L9.26682 34.4135ZM12.7642 35.545C12.4484 35.2552 12.1665 34.9956 11.6344 34.775C11.1117 34.5582 10.3556 34.3817 9.08882 34.2229L9.03815 34.627C10.295 34.7846 11.0072 34.9558 11.4784 35.1512C11.9404 35.3428 12.1782 35.5601 12.4888 35.8451L12.7642 35.545ZM13.1981 35.9252C13.0321 35.7907 12.8957 35.6656 12.7642 35.545L12.4888 35.8451C12.6199 35.9654 12.7648 36.0984 12.9417 36.2417L13.1981 35.9252ZM17.8137 35.9489C17.3828 36.4388 16.6309 36.7584 15.7733 36.7889C14.9202 36.8192 13.9836 36.5616 13.1981 35.9252L12.9417 36.2417C13.8096 36.9448 14.8444 37.2294 15.7878 37.1959C16.7268 37.1626 17.5965 36.8125 18.1195 36.2179L17.8137 35.9489ZM16.5275 34.816C16.8406 34.8788 17.1218 34.9494 17.3563 35.0312C17.5933 35.1138 17.7691 35.2032 17.882 35.2972C17.9913 35.3881 18.0258 35.4688 18.025 35.5448C18.024 35.6306 17.9778 35.7624 17.8137 35.9489L18.1195 36.2179C18.3131 35.9979 18.4298 35.7749 18.4323 35.5493C18.4349 35.3139 18.3134 35.1264 18.1426 34.9841C17.9752 34.8448 17.7467 34.7359 17.4903 34.6465C17.2315 34.5563 16.9304 34.4814 16.6076 34.4166L16.5275 34.816ZM15.8686 34.7091C16.083 34.7395 16.3 34.7704 16.5275 34.816L16.6076 34.4166C16.3671 34.3684 16.139 34.3361 15.9258 34.3058L15.8686 34.7091ZM13.9568 34.0071C14.5821 34.5298 15.213 34.616 15.8686 34.7091L15.9258 34.3058C15.2655 34.2121 14.7445 34.1347 14.218 33.6946L13.9568 34.0071ZM14.3973 30.726C14.2344 30.7872 14.0243 30.931 13.8289 31.1217C13.6305 31.3153 13.4319 31.5722 13.3038 31.8735C13.1749 32.1765 13.116 32.5287 13.2069 32.9023C13.2977 33.2759 13.5332 33.6502 13.9562 34.0066L14.2186 33.6951C13.8467 33.3817 13.6688 33.0783 13.6026 32.8061C13.5365 32.5338 13.577 32.272 13.6786 32.0328C13.781 31.792 13.9441 31.5784 14.1134 31.4132C14.2856 31.2451 14.4491 31.1416 14.5407 31.1072L14.3973 30.726ZM15.0538 30.1674C15.3323 29.888 15.6695 29.3811 15.7961 28.7496C15.9244 28.1096 15.8345 27.3483 15.2635 26.5846L14.9373 26.8285C15.4346 27.4937 15.5037 28.1357 15.3967 28.6695C15.288 29.2116 14.9956 29.6488 14.7654 29.8798L15.0538 30.1674ZM13.9855 28.5537C14.1292 28.7389 14.3387 29.039 14.4985 29.333C14.5786 29.4803 14.6429 29.6201 14.681 29.7395C14.7217 29.8666 14.7221 29.9385 14.7137 29.9678L15.1055 30.0794C15.148 29.93 15.1156 29.7611 15.069 29.6155C15.02 29.4622 14.9428 29.2974 14.8564 29.1385C14.6834 28.8202 14.4605 28.5015 14.3074 28.3041L13.9855 28.5537ZM14.3501 29.8322V28.4289H13.9428V29.8322H14.3501ZM11.425 29.0774C12.257 29.3331 13.1579 29.6103 14.0629 30.0179L14.2301 29.6465C13.2986 29.227 12.3741 28.943 11.5447 28.688L11.425 29.0774ZM7.77424 26.0049C7.77424 26.4847 7.8758 26.8868 8.069 27.2282C8.26179 27.5687 8.53905 27.8368 8.87288 28.059C9.53113 28.4971 10.4407 28.7748 11.425 29.0774L11.5447 28.688C10.5406 28.3793 9.69667 28.118 9.09855 27.7199C8.80419 27.524 8.57755 27.2997 8.42346 27.0275C8.2698 26.756 8.18154 26.425 8.18154 26.0049H7.77424ZM9.50414 26.3116C8.93351 26.3116 8.44943 26.2432 8.13271 25.8726L7.82307 26.1372C8.26948 26.6596 8.93008 26.7189 9.50414 26.7189V26.3116ZM9.44246 23.3566C8.78945 23.8661 8.67758 24.6564 8.76162 25.3055C8.80402 25.633 8.89721 25.9379 9.00712 26.1768C9.06205 26.2961 9.12289 26.4028 9.18649 26.489C9.24682 26.5708 9.32256 26.652 9.41284 26.6973L9.59544 26.3332C9.59574 26.3333 9.59353 26.3322 9.58886 26.3288C9.58425 26.3254 9.57804 26.3202 9.57035 26.3128C9.55477 26.2979 9.53578 26.2764 9.51424 26.2472C9.47103 26.1886 9.42356 26.1074 9.37714 26.0065C9.28434 25.8048 9.20265 25.5397 9.16556 25.2532C9.09061 24.6744 9.20132 24.0613 9.69299 23.6778L9.44246 23.3566ZM12.1588 26.2054C11.6186 25.9415 11.2556 25.7623 10.9079 25.4019C10.5574 25.0386 10.2119 24.4788 9.75422 23.4354L9.38123 23.599C9.84429 24.6546 10.213 25.2683 10.6148 25.6847C11.0194 26.1041 11.4469 26.3109 11.98 26.5714L12.1588 26.2054ZM14.4562 27.5619C13.4422 26.8322 12.72 26.4795 12.1588 26.2054L11.98 26.5714C12.5339 26.8419 13.2321 27.1829 14.2183 27.8925L14.4562 27.5619ZM14.897 26.7173C14.9067 26.9026 14.8795 27.241 14.7844 27.4652C14.7358 27.5799 14.6873 27.6226 14.6587 27.6342C14.6451 27.6398 14.5892 27.6576 14.4562 27.5619L14.2183 27.8925C14.4121 28.0319 14.6177 28.0903 14.8117 28.0117C14.9908 27.9391 15.0962 27.7731 15.1594 27.6243C15.2877 27.3217 15.3152 26.9146 15.3038 26.6959L14.897 26.7173ZM23.239 26.5846C22.668 27.3483 22.5781 28.1096 22.7064 28.7496C22.833 29.3811 23.1702 29.888 23.4487 30.1674L23.7371 29.8798C23.5069 29.6488 23.2145 29.2116 23.1058 28.6695C22.9988 28.1357 23.0679 27.4937 23.5652 26.8285L23.239 26.5846ZM24.0463 27.5619C23.9133 27.6576 23.8575 27.6398 23.8438 27.6342C23.8152 27.6226 23.7667 27.5799 23.7181 27.4652C23.623 27.241 23.5958 26.9026 23.6055 26.7173L23.1988 26.6959C23.1873 26.9146 23.2148 27.3217 23.3432 27.6243C23.4063 27.7731 23.5117 27.9391 23.6908 28.0117C23.8848 28.0903 24.0904 28.0319 24.2842 27.8925L24.0463 27.5619ZM26.3437 26.2054C25.7825 26.4795 25.0603 26.8322 24.0463 27.5619L24.2842 27.8925C25.2704 27.1829 25.9686 26.8419 26.5225 26.5714L26.3437 26.2054ZM28.7483 23.4354C28.2906 24.4788 27.9451 25.0386 27.5946 25.4019C27.2469 25.7623 26.8839 25.9415 26.3437 26.2054L26.5225 26.5714C27.0557 26.3109 27.4831 26.1041 27.8877 25.6847C28.2895 25.2683 28.6582 24.6546 29.1213 23.599L28.7483 23.4354ZM29.0897 26.6973C29.18 26.652 29.2557 26.5708 29.316 26.489C29.3796 26.4028 29.4405 26.2961 29.4954 26.1768C29.6053 25.9379 29.6985 25.633 29.7409 25.3055C29.8249 24.6564 29.7131 23.8661 29.0601 23.3566L28.8095 23.6778C29.3012 24.0613 29.4119 24.6744 29.337 25.2532C29.2999 25.5397 29.2182 25.8048 29.1254 26.0065C29.079 26.1074 29.0315 26.1886 28.9883 26.2472C28.9667 26.2764 28.9477 26.2979 28.9322 26.3128C28.9245 26.3202 28.9183 26.3254 28.9137 26.3288C28.909 26.3322 28.9068 26.3333 28.9071 26.3332L29.0897 26.6973ZM30.3698 25.8726C30.0531 26.2432 29.569 26.3116 28.9984 26.3116V26.7189C29.5724 26.7189 30.233 26.6596 30.6795 26.1372L30.3698 25.8726ZM27.0776 29.0774C28.0618 28.7748 28.9714 28.4971 29.6296 28.059C29.9635 27.8368 30.2407 27.5687 30.4335 27.2282C30.6267 26.8868 30.7283 26.4847 30.7283 26.0049H30.321C30.321 26.425 30.2327 26.756 30.0791 27.0275C29.925 27.2997 29.6983 27.524 29.404 27.7199C28.8058 28.118 27.9619 28.3793 26.9579 28.688L27.0776 29.0774ZM24.4397 30.0179C25.3446 29.6103 26.2456 29.3331 27.0776 29.0774L26.9579 28.688C26.1284 28.943 25.2039 29.227 24.2724 29.6465L24.4397 30.0179ZM24.1524 28.4289V29.8322H24.5597V28.4289H24.1524ZM23.7888 29.9678C23.7804 29.9385 23.7809 29.8666 23.8215 29.7395C23.8596 29.6201 23.9239 29.4803 24.004 29.333C24.1638 29.039 24.3733 28.7389 24.517 28.5537L24.1951 28.3041C24.042 28.5015 23.8191 28.8202 23.6461 29.1385C23.5598 29.2974 23.4825 29.4622 23.4335 29.6155C23.387 29.7611 23.3545 29.93 23.3971 30.0794L23.7888 29.9678Z" fill="url(#paint3_linear_741_82)"/>
</g>
<defs>
<filter id="filter0_d_741_82" x="40.189" y="11.5026" width="46.659" height="26.8409" filterUnits="userSpaceOnUse" color-interpolation-filters="sRGB">
<feFlood flood-opacity="0" result="BackgroundImageFix"/>
<feColorMatrix in="SourceAlpha" type="matrix" values="0 0 0 0 0 0 0 0 0 0 0 0 0 0 0 0 0 0 127 0" result="hardAlpha"/>
<feOffset dy="0.814614"/>
<feGaussianBlur stdDeviation="0.814614"/>
<feComposite in2="hardAlpha" operator="out"/>
<feColorMatrix type="matrix" values="0 0 0 0 0 0 0 0 0 0 0 0 0 0 0 0 0 0 0.5 0"/>
<feBlend mode="normal" in2="BackgroundImageFix" result="effect1_dropShadow_741_82"/>
<feBlend mode="normal" in="SourceGraphic" in2="effect1_dropShadow_741_82" result="shape"/>
</filter>
<filter id="filter1_i_741_82" x="80.3475" y="8.14426" width="5.49465" height="5.3067" filterUnits="userSpaceOnUse" color-interpolation-filters="sRGB">
<feFlood flood-opacity="0" result="BackgroundImageFix"/>
<feBlend mode="normal" in="SourceGraphic" in2="BackgroundImageFix" result="shape"/>
<feColorMatrix in="SourceAlpha" type="matrix" values="0 0 0 0 0 0 0 0 0 0 0 0 0 0 0 0 0 0 127 0" result="hardAlpha"/>
<feOffset dx="0.203654" dy="0.203654"/>
<feGaussianBlur stdDeviation="0.203654"/>
<feComposite in2="hardAlpha" operator="arithmetic" k2="-1" k3="1"/>
<feColorMatrix type="matrix" values="0 0 0 0 0.518522 0 0 0 0 0.091771 0 0 0 0 0.091771 0 0 0 1 0"/>
<feBlend mode="normal" in2="shape" result="effect1_innerShadow_741_82"/>
</filter>
<filter id="filter2_d_741_82" x="0.981727" y="0.796345" width="36.6316" height="42.2188" filterUnits="userSpaceOnUse" color-interpolation-filters="sRGB">
<feFlood flood-opacity="0" result="BackgroundImageFix"/>
<feColorMatrix in="SourceAlpha" type="matrix" values="0 0 0 0 0 0 0 0 0 0 0 0 0 0 0 0 0 0 127 0" result="hardAlpha"/>
<feOffset dy="0.814614"/>
<feGaussianBlur stdDeviation="0.407307"/>
<feColorMatrix type="matrix" values="0 0 0 0 0 0 0 0 0 0 0 0 0 0 0 0 0 0 0.5 0"/>
<feBlend mode="normal" in2="BackgroundImageFix" result="effect1_dropShadow_741_82"/>
<feBlend mode="normal" in="SourceGraphic" in2="effect1_dropShadow_741_82" result="shape"/>
</filter>
<linearGradient id="paint0_linear_741_82" x1="90.3659" y1="8.83484" x2="34.6445" y2="40.5385" gradientUnits="userSpaceOnUse">
<stop stop-color="white"/>
<stop offset="1" stop-color="#A2A2A2"/>
</linearGradient>
<linearGradient id="paint1_linear_741_82" x1="88" y1="14.1776" x2="34.3905" y2="35.4744" gradientUnits="userSpaceOnUse">
<stop stop-color="white"/>
<stop offset="1" stop-color="#D9D9D9"/>
</linearGradient>
<linearGradient id="paint2_linear_741_82" x1="19.2975" y1="36.7213" x2="19.2975" y2="40.8038" gradientUnits="userSpaceOnUse">
<stop stop-color="#FFF2A1"/>
<stop offset="1" stop-color="#807111"/>
</linearGradient>
<linearGradient id="paint3_linear_741_82" x1="19.2975" y1="1" x2="19.2975" y2="36.9949" gradientUnits="userSpaceOnUse">
<stop stop-color="#FFF2A1"/>
<stop offset="1" stop-color="#807111"/>
</linearGradient>
</defs>
</svg>
