<svg width="388" height="403" viewBox="0 0 388 403" fill="none" xmlns="http://www.w3.org/2000/svg">
<path d="M145.551 360.471L145.38 361.456L145.383 361.456L145.551 360.471ZM139.846 335.508L140.626 336.132L142.896 333.296L139.494 334.571L139.846 335.508ZM194 376.875L193.517 377.751L194 378.017L194.483 377.751L194 376.875ZM242.449 360.471L242.618 361.456L242.62 361.456L242.449 360.471ZM248.155 335.508L248.506 334.571L245.104 333.296L247.374 336.132L248.155 335.508ZM252.434 368.316L253.074 369.085L253.077 369.082L252.434 368.316ZM232.136 375.658L232.277 376.648L232.136 375.658ZM224.618 376.875L224.814 377.856L224.618 376.875ZM208.927 393.28L208.177 393.941L208.927 393.28ZM263.846 393.28L263.217 392.502L263.846 393.28ZM268.818 388.937L268.167 388.178L268.155 388.188L268.143 388.199L268.818 388.937ZM268.819 388.937L269.469 389.696L269.482 389.685L269.494 389.675L268.819 388.937ZM308.78 374.736L308.904 375.728L309.731 375.624L309.778 374.792L308.78 374.736ZM348.008 321.956L347.633 321.029L348.008 321.956ZM386.522 238.508L387.49 238.257L386.873 235.877L385.654 238.011L386.522 238.508ZM325.184 251.346L324.435 252.008L325.184 251.346ZM329.093 198.284L329.905 198.868L329.093 198.284ZM345.155 157.199L344.161 157.309L345.155 157.199ZM317.338 91.5809L317.845 90.719L316.02 89.6454L316.351 91.7369L317.338 91.5809ZM248.155 138.654L248.849 137.935L247.155 136.299V138.654H248.155ZM248.076 143.854L249.076 143.878L248.076 143.854ZM258.14 177.169L257.874 178.133L260.36 178.819L258.986 176.636L258.14 177.169ZM251.384 175.76L251.564 174.776L251.384 175.76ZM232.515 126.529L231.653 126.022L232.515 126.529ZM240.36 55.9192L239.447 56.3258L240.36 55.9192ZM194 10.9853L193.106 11.4325L193.222 11.6657L193.438 11.8122L194 10.9853ZM159.103 1V0L159.024 1.9969L159.103 1ZM181.213 28.103L180.328 28.5687L181.213 28.103ZM171.995 59.0524L172.294 60.0069L172.309 60.0022L172.324 59.997L171.995 59.0524ZM171.995 59.0525L171.697 58.098L171.682 58.1027L171.667 58.108L171.995 59.0525ZM166.949 60.9118L167.329 61.8365L166.949 60.9118ZM141.985 102.993L141.07 103.396L141.074 103.406L141.079 103.415L141.985 102.993ZM129.86 177.169L129.014 176.636L127.64 178.819L130.126 178.133L129.86 177.169ZM139.924 143.854L138.925 143.878L139.924 143.854ZM139.846 138.654H140.846V136.299L139.151 137.935L139.846 138.654ZM70.6617 91.5809L71.6495 91.7369L71.9797 89.6455L70.1547 90.719L70.6617 91.5809ZM42.8455 157.199L41.8516 157.088L42.8455 157.199ZM58.9068 198.284L58.0957 198.868L58.9068 198.284ZM62.8161 251.346L62.0671 250.683L62.8161 251.346ZM1.47791 238.508L2.34615 238.011L1.12673 235.877L0.509908 238.257L1.47791 238.508ZM39.9926 321.956L39.6182 322.883L39.9926 321.956ZM79.2206 374.736L78.2222 374.792L78.2693 375.624L79.0965 375.728L79.2206 374.736ZM119.182 388.937L118.507 389.675H118.507L119.182 388.937ZM124.154 393.28L124.783 392.502L124.154 393.28ZM179.074 393.28L179.823 393.941L179.074 393.28ZM163.382 376.875L163.579 375.895L163.382 376.875ZM155.864 375.658L155.724 376.648L155.864 375.658ZM135.566 368.316L134.923 369.082L134.926 369.085L135.566 368.316ZM144.787 325.522L143.825 325.248L142.765 328.958L145.494 326.229L144.787 325.522ZM146.927 288.434L147.727 287.834L145.755 285.206L145.928 288.487L146.927 288.434ZM136.228 307.691L137.017 307.077L135.228 304.777V307.691H136.228ZM136.228 323.383L135.819 324.295L137.228 324.928V323.383H136.228ZM106.376 312.766L106.083 313.722L106.376 312.766ZM67.0442 280.588L67.8035 279.938L66.0442 277.885V280.588H67.0442ZM84.1619 286.294V287.294L84.6091 285.4L84.1619 286.294ZM84.875 252.772L85.7904 252.37L85.2737 251.195L84.2611 251.983L84.875 252.772ZM112.933 284.876L112.495 285.775L112.933 284.876ZM138.368 299.846L138.951 299.033L138.368 299.846ZM240.035 288.434L241.034 288.487L241.206 285.206L239.235 287.834L240.035 288.434ZM242.175 325.522L241.468 326.229L244.196 328.958L243.136 325.248L242.175 325.522ZM248.594 299.846L249.177 300.658L248.594 299.846ZM274.029 284.876L273.591 283.977L274.029 284.876ZM302.086 252.772L302.7 251.983L301.688 251.195L301.171 252.37L302.086 252.772ZM302.8 286.294L302.352 285.4L302.8 287.294V286.294ZM319.917 280.588H320.917V277.885L319.158 279.938L319.917 280.588ZM280.585 312.766L280.878 313.722L280.585 312.766ZM250.733 323.383H249.733V324.928L251.143 324.295L250.733 323.383ZM250.733 307.691H251.733V304.777L249.944 307.077L250.733 307.691ZM159.312 2.01831C159.494 2.04675 159.734 2.11107 160.035 2.2316L160.779 0.374864C160.371 0.211583 159.983 0.0989573 159.621 0.0423302L159.312 2.01831ZM163.069 4.17747C163.511 4.54172 163.983 4.95828 164.482 5.43225L165.859 3.9819C165.329 3.47812 164.822 3.02992 164.34 2.63319L163.069 4.17747ZM167.122 8.20894C167.524 8.66973 167.937 9.16087 168.362 9.68392L169.914 8.42265C169.475 7.88258 169.047 7.37389 168.63 6.89513L167.122 8.20894ZM170.717 12.7571C171.086 13.2644 171.461 13.7934 171.843 14.3449L173.487 13.2058C173.097 12.6426 172.713 12.1015 172.336 11.5819L170.717 12.7571ZM173.993 17.5798C174.334 18.1126 174.679 18.6621 175.028 19.2287L176.73 18.1789C176.376 17.6034 176.025 17.0449 175.678 16.5029L173.993 17.5798ZM177.027 22.5771C177.346 23.1283 177.668 23.6931 177.993 24.2719L179.736 23.2921C179.407 22.7062 179.081 22.1341 178.758 21.5756L177.027 22.5771ZM179.866 27.6964C180.02 27.9841 180.174 28.2749 180.328 28.5687L182.098 27.6372C181.942 27.3404 181.786 27.0466 181.631 26.7557L179.866 27.6964ZM180.328 28.5687C180.48 28.8566 180.628 29.1414 180.772 29.4231L182.552 28.5105C182.404 28.2223 182.253 27.9312 182.098 27.6372L180.328 28.5687ZM182.405 32.8003C182.671 33.3891 182.919 33.9624 183.151 34.5206L184.998 33.7545C184.758 33.1761 184.502 32.5838 184.227 31.977L182.405 32.8003ZM184.448 38.0204C184.647 38.6373 184.821 39.2318 184.972 39.8049L186.906 39.2957C186.746 38.6854 186.561 38.056 186.352 37.4067L184.448 38.0204ZM185.655 43.4042C185.721 44.0362 185.752 44.6337 185.75 45.1992L187.75 45.2051C187.752 44.5627 187.717 43.8931 187.644 43.1946L185.655 43.4042ZM185.249 48.6607C185.07 49.2272 184.846 49.7528 184.583 50.2428L186.344 51.1906C186.667 50.5902 186.94 49.9491 187.156 49.2635L185.249 48.6607ZM182.422 52.9263C181.989 53.3104 181.519 53.6706 181.016 54.0112L182.136 55.6677C182.703 55.2843 183.243 54.8712 183.749 54.4226L182.422 52.9263ZM177.82 55.7626C177.266 56.0149 176.694 56.2562 176.108 56.4903L176.849 58.3478C177.459 58.1044 178.061 57.8506 178.649 57.5828L177.82 55.7626ZM172.566 57.7946C172.267 57.8991 171.968 58.0033 171.667 58.1079L172.324 59.997C172.624 59.8924 172.926 59.7877 173.226 59.6825L172.566 57.7946ZM171.697 58.098L171.697 58.098L172.293 60.0069L172.294 60.0069L171.697 58.098ZM171.697 58.098L171.697 58.098L172.293 60.007L172.293 60.007L171.697 58.098ZM171.667 58.108C171.385 58.206 171.102 58.3044 170.819 58.4033L171.478 60.2914C171.76 60.1931 172.041 60.0952 172.323 59.997L171.667 58.108ZM167.416 59.6468C167.132 59.758 166.849 59.8713 166.568 59.9871L167.329 61.8365C167.599 61.7256 167.871 61.6166 168.145 61.5093L167.416 59.6468ZM166.568 59.9871C166.256 60.1156 165.936 60.2492 165.61 60.388L166.393 62.2283C166.712 62.0927 167.024 61.9621 167.329 61.8365L166.568 59.9871ZM161.806 62.119C161.193 62.4172 160.568 62.7308 159.936 63.0601L160.859 64.834C161.475 64.5136 162.083 64.2083 162.68 63.9176L161.806 62.119ZM156.279 65.1042C155.685 65.4611 155.09 65.8318 154.497 66.2164L155.585 67.8946C156.158 67.523 156.734 67.1644 157.309 66.8186L156.279 65.1042ZM151.058 68.635C150.501 69.0606 149.952 69.4998 149.411 69.9529L150.695 71.4858C151.212 71.0527 151.739 70.6321 152.273 70.2237L151.058 68.635ZM146.308 72.8284C145.815 73.3361 145.336 73.8583 144.874 74.3953L146.389 75.7002C146.825 75.1947 147.277 74.7018 147.743 74.2211L146.308 72.8284ZM142.314 77.8036C141.927 78.4022 141.562 79.0162 141.221 79.6458L142.98 80.5974C143.295 80.0151 143.634 79.4457 143.993 78.889L142.314 77.8036ZM139.503 83.5809C139.276 84.2559 139.078 84.9458 138.91 85.6507L140.855 86.1137C141.009 85.4689 141.191 84.8373 141.399 84.2186L139.503 83.5809ZM138.301 89.9116C138.265 90.6165 138.259 91.3337 138.285 92.0632L140.284 91.9906C140.26 91.319 140.265 90.6602 140.298 90.0138L138.301 89.9116ZM138.789 96.317C138.925 96.9996 139.087 97.6914 139.278 98.3925L141.208 97.8664C141.029 97.2096 140.877 96.5635 140.751 95.928L138.789 96.317ZM140.649 102.406C140.784 102.734 140.924 103.064 141.07 103.396L142.9 102.589C142.761 102.273 142.628 101.96 142.501 101.649L140.649 102.406ZM141.079 103.415C141.225 103.729 141.37 104.042 141.512 104.353L143.331 103.52C143.186 103.205 143.04 102.888 142.892 102.57L141.079 103.415ZM143.141 108.036C143.413 108.672 143.676 109.304 143.933 109.93L145.784 109.172C145.524 108.537 145.256 107.897 144.981 107.251L143.141 108.036ZM145.406 113.689C145.644 114.327 145.875 114.959 146.097 115.585L147.982 114.915C147.756 114.279 147.521 113.636 147.279 112.988L145.406 113.689ZM147.384 119.415C147.588 120.062 147.783 120.701 147.97 121.335L149.888 120.769C149.698 120.123 149.499 119.471 149.291 118.813L147.384 119.415ZM149.031 125.224C149.197 125.888 149.353 126.544 149.5 127.192L151.451 126.751C151.301 126.087 151.141 125.417 150.971 124.739L149.031 125.224ZM150.292 131.133C150.41 131.804 150.517 132.467 150.613 133.12L152.592 132.829C152.493 132.157 152.383 131.476 152.262 130.788L150.292 131.133ZM151.085 137.108C151.144 137.782 151.192 138.445 151.229 139.098L153.226 138.986C153.188 138.311 153.138 137.627 153.077 136.933L151.085 137.108ZM151.315 143.108C151.305 143.782 151.283 144.445 151.248 145.096L153.246 145.201C153.281 144.525 153.304 143.836 153.315 143.136L151.315 143.108ZM150.874 149.073C150.782 149.742 150.677 150.397 150.558 151.038L152.525 151.401C152.649 150.73 152.759 150.045 152.855 149.346L150.874 149.073ZM149.652 154.895C149.465 155.543 149.264 156.175 149.051 156.791L150.94 157.447C151.165 156.798 151.377 156.132 151.574 155.449L149.652 154.895ZM147.544 160.455C147.254 161.059 146.951 161.645 146.636 162.211L148.384 163.183C148.719 162.581 149.04 161.961 149.347 161.321L147.544 160.455ZM144.51 165.536C144.116 166.075 143.71 166.593 143.296 167.09L144.831 168.372C145.273 167.842 145.705 167.291 146.125 166.717L144.51 165.536ZM140.579 169.943C140.088 170.395 139.59 170.822 139.088 171.226L140.341 172.785C140.878 172.353 141.41 171.896 141.934 171.414L140.579 169.943ZM135.86 173.478C135.285 173.823 134.709 174.14 134.138 174.429L135.041 176.214C135.655 175.903 136.272 175.563 136.889 175.194L135.86 173.478ZM130.522 175.927C130.209 176.029 129.899 176.121 129.594 176.205L130.126 178.133C130.459 178.041 130.797 177.94 131.137 177.83L130.522 175.927ZM130.706 177.702C130.887 177.416 131.064 177.132 131.238 176.851L129.539 175.797C129.367 176.074 129.192 176.354 129.014 176.636L130.706 177.702ZM133.284 173.447C133.626 172.857 133.953 172.28 134.266 171.715L132.518 170.745C132.211 171.298 131.89 171.864 131.553 172.444L133.284 173.447ZM136.125 168.18C136.431 167.562 136.719 166.959 136.989 166.37L135.171 165.536C134.909 166.107 134.63 166.692 134.333 167.293L136.125 168.18ZM138.532 162.659C138.773 162.007 138.992 161.371 139.19 160.749L137.285 160.142C137.096 160.734 136.887 161.34 136.656 161.964L138.532 162.659ZM140.216 156.83C140.354 156.153 140.469 155.489 140.564 154.832L138.585 154.545C138.495 155.165 138.386 155.793 138.256 156.431L140.216 156.83ZM140.935 150.805C140.965 150.138 140.981 149.47 140.988 148.798L138.988 148.779C138.981 149.431 138.965 150.075 138.937 150.716L140.935 150.805ZM140.947 144.819C140.94 144.493 140.932 144.163 140.924 143.831L138.925 143.878C138.932 144.211 138.94 144.539 138.947 144.864L140.947 144.819ZM140.924 143.831C140.917 143.545 140.91 143.257 140.904 142.965L138.904 143.011C138.911 143.303 138.918 143.592 138.925 143.878L140.924 143.831ZM140.848 139.515C140.847 139.231 140.846 138.945 140.846 138.654H138.846C138.846 138.949 138.847 139.24 138.848 139.528L140.848 139.515ZM139.151 137.935C138.904 138.173 138.658 138.409 138.413 138.643L139.792 140.091C140.041 139.855 140.29 139.615 140.54 139.374L139.151 137.935ZM135.513 141.327C135.036 141.755 134.563 142.174 134.093 142.583L135.407 144.091C135.885 143.675 136.365 143.25 136.849 142.815L135.513 141.327ZM131.067 145.128C130.56 145.538 130.057 145.937 129.559 146.325L130.787 147.903C131.296 147.507 131.809 147.1 132.326 146.682L131.067 145.128ZM126.433 148.65C125.896 149.031 125.364 149.398 124.838 149.751L125.953 151.412C126.494 151.048 127.039 150.672 127.59 150.282L126.433 148.65ZM121.566 151.818C121.001 152.152 120.442 152.47 119.89 152.772L120.85 154.527C121.422 154.214 121.999 153.885 122.583 153.54L121.566 151.818ZM116.437 154.496C115.85 154.76 115.271 155.006 114.7 155.233L115.439 157.091C116.039 156.853 116.645 156.595 117.258 156.319L116.437 154.496ZM111.064 156.469C110.442 156.643 109.83 156.795 109.228 156.924L109.648 158.879C110.291 158.741 110.943 158.58 111.603 158.395L111.064 156.469ZM105.484 157.461C104.841 157.506 104.211 157.523 103.593 157.516L103.568 159.516C104.241 159.524 104.926 159.505 105.622 159.457L105.484 157.461ZM99.8711 157.144C99.2511 157.025 98.6441 156.878 98.0499 156.705L97.4914 158.626C98.1452 158.816 98.8127 158.977 99.494 159.108L99.8711 157.144ZM94.5725 155.333C94.0147 155.052 93.469 154.746 92.935 154.415L91.883 156.116C92.4649 156.476 93.0611 156.811 93.6719 157.119L94.5725 155.333ZM89.8985 152.182C89.4214 151.772 88.9549 151.341 88.499 150.891L87.0939 152.314C87.5811 152.795 88.0812 153.257 88.5945 153.698L89.8985 152.182ZM85.9529 148.048C85.5607 147.557 85.1777 147.05 84.8037 146.529L83.1792 147.696C83.5719 148.243 83.9753 148.776 84.3894 149.296L85.9529 148.048ZM82.7036 143.306C82.3774 142.756 82.0594 142.195 81.7495 141.624L79.9917 142.578C80.3131 143.17 80.6436 143.753 80.9832 144.326L82.7036 143.306ZM80.0215 138.164C79.7532 137.58 79.4922 136.99 79.2384 136.393L77.3979 137.175C77.659 137.789 77.9278 138.398 78.2045 138.999L80.0215 138.164ZM77.8142 132.779C77.5921 132.172 77.3768 131.559 77.168 130.944L75.2739 131.586C75.4875 132.216 75.708 132.843 75.9356 133.466L77.8142 132.779ZM75.9976 127.23C75.8151 126.607 75.6389 125.981 75.4688 125.355L73.5388 125.88C73.7122 126.518 73.8919 127.156 74.0781 127.792L75.9976 127.23ZM74.5151 121.573C74.3668 120.937 74.2245 120.303 74.0881 119.67L72.133 120.092C72.2718 120.735 72.4165 121.381 72.5675 122.028L74.5151 121.573ZM73.3271 115.841C73.2094 115.195 73.0977 114.553 72.9919 113.916L71.0189 114.244C71.1264 114.891 71.2399 115.543 71.3595 116.199L73.3271 115.841ZM72.411 110.057C72.3223 109.399 72.2399 108.75 72.1637 108.111L70.1778 108.348C70.2552 108.997 70.3389 109.656 70.4289 110.324L72.411 110.057ZM71.7627 104.224C71.7054 103.564 71.6551 102.919 71.6116 102.291L69.6164 102.429C69.6607 103.069 69.7119 103.725 69.7702 104.397L71.7627 104.224ZM71.4178 98.3845C71.3986 97.7024 71.3891 97.0542 71.3884 96.4435L69.3884 96.4458C69.3891 97.0757 69.399 97.7418 69.4185 98.4406L71.4178 98.3845ZM71.5405 92.6065C71.5728 92.2809 71.6094 91.9907 71.6495 91.7369L69.6739 91.425C69.6267 91.7239 69.5855 92.0531 69.5502 92.4092L71.5405 92.6065ZM70.1547 90.719C69.8543 90.8957 69.5546 91.0798 69.2556 91.2715L70.3349 92.9553C70.6126 92.7772 70.8906 92.6065 71.1687 92.4429L70.1547 90.719ZM65.8778 93.7901C65.3552 94.2369 64.836 94.7084 64.3207 95.2049L65.7085 96.6451C66.1959 96.1754 66.6857 95.7306 67.1774 95.3104L65.8778 93.7901ZM61.4716 98.259C61.0315 98.7808 60.5951 99.3227 60.1627 99.8849L61.748 101.104C62.1626 100.565 62.5802 100.047 63.0005 99.5484L61.4716 98.259ZM57.7615 103.284C57.3912 103.853 57.0245 104.438 56.6617 105.041L58.3749 106.073C58.7261 105.49 59.0805 104.924 59.4379 104.374L57.7615 103.284ZM54.6382 108.653C54.3244 109.255 54.0141 109.871 53.7075 110.501L55.5056 111.376C55.8044 110.763 56.1065 110.163 56.4116 109.578L54.6382 108.653ZM51.9921 114.262C51.7264 114.884 51.4639 115.518 51.2048 116.164L53.061 116.909C53.3147 116.276 53.5716 115.656 53.8314 115.048L51.9921 114.262ZM49.752 120.015C49.5254 120.653 49.3019 121.302 49.0815 121.962L50.9785 122.595C51.195 121.947 51.4144 121.31 51.6368 120.683L49.752 120.015ZM47.8434 125.893C47.6514 126.54 47.4623 127.197 47.2761 127.862L49.2022 128.401C49.3856 127.745 49.5718 127.099 49.7608 126.462L47.8434 125.893ZM46.2264 131.84C46.0631 132.497 45.9024 133.162 45.7445 133.835L47.6917 134.292C47.8476 133.627 48.0061 132.971 48.1673 132.322L46.2264 131.84ZM44.8587 137.843C44.7206 138.507 44.5851 139.178 44.4522 139.856L46.4149 140.241C46.5463 139.57 46.6803 138.907 46.8168 138.251L44.8587 137.843ZM43.7087 143.891C43.5933 144.558 43.4804 145.231 43.3699 145.911L45.344 146.231C45.4534 145.558 45.5652 144.892 45.6794 144.232L43.7087 143.891ZM42.7513 149.972C42.6563 150.639 42.5636 151.312 42.4732 151.991L44.4557 152.255C44.5453 151.582 44.6372 150.915 44.7313 150.254L42.7513 149.972ZM41.9681 156.06C41.9287 156.401 41.8899 156.744 41.8516 157.088L43.8394 157.309C43.8773 156.968 43.9158 156.628 43.9549 156.289L41.9681 156.06ZM41.8516 157.088C41.8157 157.412 41.784 157.734 41.7564 158.054L43.749 158.226C43.7752 157.922 43.8053 157.616 43.8394 157.309L41.8516 157.088ZM41.6191 161.921C41.6291 162.572 41.6556 163.217 41.6981 163.857L43.6937 163.724C43.6535 163.118 43.6283 162.507 43.6189 161.89L41.6191 161.921ZM42.1479 167.699C42.2551 168.337 42.3773 168.97 42.5139 169.598L44.4682 169.173C44.3383 168.576 44.2221 167.974 44.1204 167.368L42.1479 167.699ZM43.5055 173.327C43.698 173.941 43.9032 174.55 44.1202 175.153L46.0023 174.477C45.7942 173.898 45.5978 173.315 45.4138 172.729L43.5055 173.327ZM45.5567 178.719C45.8167 179.303 46.0867 179.883 46.3656 180.458L48.1653 179.586C47.8954 179.029 47.6346 178.469 47.3837 177.906L45.5567 178.719ZM48.1342 183.852C48.4435 184.408 48.7598 184.96 49.0823 185.509L50.8067 184.496C50.4917 183.96 50.1832 183.421 49.8822 182.88L48.1342 183.852ZM51.0792 188.754C51.4214 189.288 51.7681 189.818 52.1183 190.346L53.7849 189.241C53.4399 188.721 53.0989 188.199 52.7627 187.675L51.0792 188.754ZM54.2551 193.482C54.6166 194.001 54.98 194.517 55.3444 195.031L56.9761 193.874C56.6141 193.364 56.2537 192.852 55.8957 192.338L54.2551 193.482ZM57.5444 198.104C57.7283 198.359 57.9122 198.614 58.0957 198.868L59.7179 197.699C59.5344 197.444 59.3508 197.19 59.1671 196.935L57.5444 198.104ZM58.0957 198.868C58.2896 199.137 58.4831 199.406 58.6762 199.674L60.2989 198.505C60.1055 198.236 59.9118 197.968 59.7179 197.699L58.0957 198.868ZM60.9794 202.894C61.3613 203.435 61.7391 203.974 62.1121 204.512L63.756 203.373C63.3789 202.829 62.9974 202.284 62.6126 201.74L60.9794 202.894ZM64.3111 207.779C64.6703 208.331 65.0218 208.883 65.3646 209.434L67.0634 208.379C66.7127 207.814 66.3537 207.251 65.9878 206.688L64.3111 207.779ZM67.3436 212.811C67.6584 213.386 67.9612 213.961 68.2507 214.537L70.0375 213.638C69.7367 213.04 69.423 212.444 69.0978 211.85L67.3436 212.811ZM69.8469 218.072C70.0862 218.674 70.3085 219.278 70.5124 219.883L72.4077 219.244C72.1919 218.604 71.9573 217.967 71.7056 217.333L69.8469 218.072ZM71.5156 223.589C71.6422 224.215 71.7469 224.844 71.8283 225.476L73.8119 225.22C73.7241 224.539 73.6116 223.864 73.476 223.193L71.5156 223.589ZM72.0281 229.281C72.0122 229.91 71.9717 230.544 71.9051 231.182L73.8943 231.39C73.9664 230.699 74.0102 230.013 74.0274 229.332L72.0281 229.281ZM71.2201 234.928C71.0619 235.533 70.8793 236.143 70.6711 236.759L72.5658 237.4C72.7888 236.74 72.9849 236.085 73.1551 235.434L71.2201 234.928ZM69.2104 240.308C68.9365 240.874 68.6406 241.444 68.3219 242.02L70.0716 242.989C70.4075 242.382 70.7201 241.779 71.0103 241.18L69.2104 240.308ZM66.2823 245.315C65.9236 245.84 65.5459 246.369 65.1488 246.902L66.753 248.097C67.1658 247.542 67.5591 246.991 67.9334 246.444L66.2823 245.315ZM62.7193 249.934C62.5061 250.183 62.2887 250.433 62.0671 250.683L63.5651 252.008C63.7935 251.75 64.0176 251.493 64.2376 251.236L62.7193 249.934ZM62.0671 250.683C61.8475 250.931 61.628 251.176 61.4087 251.416L62.8856 252.764C63.1121 252.516 63.3386 252.264 63.5651 252.008L62.0671 250.683ZM58.7253 254.166C58.2597 254.61 57.795 255.038 57.3312 255.448L58.6564 256.946C59.1397 256.518 59.6232 256.074 60.1067 255.612L58.7253 254.166ZM54.356 257.861C53.8361 258.245 53.3176 258.609 52.8007 258.953L53.9079 260.618C54.4529 260.256 54.9985 259.873 55.5444 259.47L54.356 257.861ZM49.5274 260.879C48.9592 261.171 48.3933 261.439 47.8299 261.686L48.631 263.518C49.2331 263.255 49.8364 262.969 50.4409 262.658L49.5274 260.879ZM44.2723 262.963C43.6607 263.135 43.0522 263.282 42.4471 263.405L42.8464 265.365C43.4998 265.232 44.1558 265.073 44.8143 264.888L44.2723 262.963ZM38.7298 263.874C38.0999 263.905 37.4737 263.911 36.8514 263.894L36.7964 265.893C37.469 265.911 38.1462 265.905 38.8277 265.871L38.7298 263.874ZM33.1131 263.51C32.4946 263.401 31.8804 263.269 31.2709 263.117L30.786 265.057C31.4393 265.22 32.0988 265.362 32.7642 265.479L33.1131 263.51ZM27.6731 261.964C27.0859 261.734 26.5039 261.487 25.9275 261.222L25.0932 263.04C25.7035 263.32 26.3209 263.583 26.9452 263.827L27.6731 261.964ZM22.5596 259.454C22.0138 259.131 21.4742 258.794 20.941 258.445L19.8442 260.117C20.4023 260.483 20.9682 260.836 21.5415 261.176L22.5596 259.454ZM17.8356 256.212C17.3327 255.819 16.837 255.415 16.3488 255.002L15.0575 256.53C15.5644 256.958 16.0796 257.378 16.6029 257.787L17.8356 256.212ZM13.5061 252.422C13.0453 251.974 12.5929 251.52 12.1492 251.061L10.7106 252.45C11.1687 252.925 11.6361 253.394 12.1125 253.857L13.5061 252.422ZM9.55926 248.211C9.13836 247.719 8.72753 247.225 8.32711 246.729L6.77122 247.986C7.1834 248.496 7.60643 249.005 8.03998 249.512L9.55926 248.211ZM5.99051 243.664C5.61002 243.134 5.24235 242.607 4.88792 242.083L3.2316 243.204C3.59655 243.744 3.975 244.286 4.36656 244.831L5.99051 243.664ZM2.82416 238.832C2.66046 238.556 2.5011 238.283 2.34615 238.011L0.609661 239.004C0.769978 239.284 0.934723 239.567 1.10382 239.852L2.82416 238.832ZM0.509908 238.257C0.424421 238.586 0.342333 238.924 0.263704 239.269L2.21377 239.713C2.28818 239.387 2.36559 239.068 2.4459 238.758L0.509908 238.257ZM-0.46754 243.423C-0.556221 244.1 -0.634327 244.796 -0.701478 245.51L1.28974 245.698C1.3547 245.007 1.43012 244.335 1.51551 243.683L-0.46754 243.423ZM-0.960902 249.698C-0.982785 250.383 -0.995593 251.079 -0.999046 251.786L1.00093 251.796C1.0043 251.106 1.01678 250.428 1.03808 249.762L-0.960902 249.698ZM-0.914533 255.953C-0.883803 256.641 -0.844645 257.337 -0.79683 258.041L1.19856 257.905C1.15179 257.217 1.11351 256.536 1.08348 255.864L-0.914533 255.953ZM-0.421467 262.188C-0.34416 262.873 -0.258779 263.564 -0.16513 264.259L1.81695 263.991C1.72523 263.311 1.64162 262.635 1.56593 261.964L-0.421467 262.188ZM0.479496 268.374C0.60096 269.054 0.73038 269.738 0.86793 270.423L2.82884 270.03C2.69411 269.358 2.56734 268.689 2.44836 268.023L0.479496 268.374ZM1.77499 274.489C1.94027 275.162 2.11355 275.835 2.29498 276.51L4.22628 275.99C4.04867 275.33 3.87903 274.67 3.71719 274.012L1.77499 274.489ZM3.46701 280.509C3.67702 281.17 3.89518 281.831 4.12164 282.491L6.0134 281.842C5.79198 281.197 5.57862 280.551 5.37318 279.904L3.46701 280.509ZM5.56736 286.403C5.82378 287.049 6.08857 287.693 6.36189 288.335L8.202 287.551C7.93521 286.924 7.67666 286.296 7.42621 285.665L5.56736 286.403ZM8.09417 292.132C8.399 292.757 8.71249 293.379 9.03479 293.997L10.8083 293.073C10.4944 292.471 10.1889 291.865 9.89175 291.255L8.09417 292.132ZM11.0686 297.649C11.4243 298.248 11.7889 298.842 12.1626 299.431L13.8513 298.359C13.4882 297.787 13.1337 297.209 12.7878 296.627L11.0686 297.649ZM14.5105 302.895C14.919 303.46 15.3368 304.018 15.764 304.571L17.3463 303.348C16.9322 302.812 16.5271 302.27 16.1309 301.723L14.5105 302.895ZM18.4338 307.8C18.896 308.322 19.3677 308.838 19.8492 309.346L21.3008 307.97C20.8353 307.479 20.379 306.98 19.9318 306.475L18.4338 307.8ZM22.8392 312.286C23.3544 312.757 23.8793 313.221 24.4141 313.675L25.7097 312.152C25.1937 311.713 24.687 311.266 24.1897 310.81L22.8392 312.286ZM27.7086 316.273C28.2726 316.684 28.8463 317.086 29.43 317.479L30.5466 315.82C29.984 315.441 29.431 315.054 28.8872 314.657L27.7086 316.273ZM33.0023 319.69C33.606 320.033 34.2192 320.366 34.8419 320.688L35.7621 318.913C35.162 318.602 34.5711 318.281 33.9893 317.951L33.0023 319.69ZM38.6405 322.478C38.964 322.616 39.2899 322.751 39.6182 322.883L40.3671 321.029C40.0505 320.901 39.7362 320.771 39.4241 320.638L38.6405 322.478ZM39.6182 322.883C39.9144 323.003 40.2085 323.124 40.5005 323.247L41.2762 321.404C40.9753 321.277 40.6723 321.152 40.3671 321.029L39.6182 322.883ZM43.9432 324.815C44.5131 325.096 45.0742 325.382 45.6266 325.675L46.5626 323.907C45.9925 323.605 45.4136 323.31 44.8257 323.021L43.9432 324.815ZM48.9118 327.545C49.4536 327.876 49.9861 328.213 50.5096 328.555L51.6045 326.882C51.0638 326.528 50.5138 326.18 49.9543 325.838L48.9118 327.545ZM53.6034 330.721C54.112 331.101 54.611 331.487 55.1005 331.877L56.3482 330.314C55.8423 329.911 55.3267 329.512 54.8011 329.119L53.6034 330.721ZM57.9744 334.324C58.4445 334.75 58.9048 335.181 59.3553 335.617L60.745 334.178C60.2795 333.729 59.804 333.283 59.3181 332.842L57.9744 334.324ZM61.9908 338.328C62.4181 338.796 62.8353 339.267 63.2425 339.742L64.7603 338.439C64.3398 337.949 63.909 337.462 63.4677 336.979L61.9908 338.328ZM65.6157 342.685C65.9992 343.192 66.3723 343.701 66.7353 344.211L68.3654 343.052C67.9909 342.526 67.6059 342.001 67.2102 341.478L65.6157 342.685ZM68.8341 347.358C69.1708 347.897 69.4969 348.436 69.8127 348.976L71.5388 347.965C71.2134 347.409 70.8772 346.853 70.53 346.298L68.8341 347.358ZM71.6277 352.293C71.9175 352.861 72.1964 353.428 72.4644 353.993L74.2712 353.135C73.995 352.553 73.7078 351.97 73.4092 351.384L71.6277 352.293ZM73.9905 357.459C74.2314 358.051 74.4607 358.639 74.6786 359.222L76.552 358.522C76.3275 357.921 76.0913 357.315 75.8431 356.705L73.9905 357.459ZM75.9003 362.803C76.0898 363.417 76.2665 364.022 76.4309 364.617L78.3587 364.084C78.189 363.47 78.0067 362.846 77.8113 362.213L75.9003 362.803ZM77.3219 368.29C77.4544 368.926 77.5717 369.546 77.6746 370.146L79.6459 369.809C79.5389 369.184 79.4171 368.541 79.2799 367.882L77.3219 368.29ZM78.1571 373.869C78.1837 374.186 78.2053 374.494 78.2222 374.792L80.219 374.679C80.201 374.362 80.1781 374.036 80.1501 373.702L78.1571 373.869ZM79.0965 375.728C79.4453 375.771 79.7905 375.815 80.132 375.859L80.3865 373.875C80.0427 373.831 79.6955 373.787 79.3446 373.743L79.0965 375.728ZM84.1896 376.408C84.8842 376.507 85.5621 376.607 86.2238 376.708L86.5241 374.73C85.8565 374.629 85.1729 374.528 84.4728 374.428L84.1896 376.408ZM90.277 377.365C90.9688 377.485 91.6402 377.606 92.2922 377.728L92.6597 375.762C91.9988 375.639 91.3189 375.516 90.619 375.395L90.277 377.365ZM96.2956 378.541C96.9859 378.693 97.6503 378.847 98.2904 379.002L98.7624 377.059C98.1082 376.9 97.4302 376.743 96.727 376.588L96.2956 378.541ZM102.21 380.061C102.888 380.265 103.532 380.472 104.146 380.682L104.792 378.789C104.154 378.571 103.487 378.357 102.788 378.146L102.21 380.061ZM107.89 382.148C108.525 382.435 109.123 382.727 109.688 383.025L110.619 381.254C110.017 380.938 109.384 380.628 108.712 380.325L107.89 382.148ZM113.085 385.111C113.636 385.503 114.164 385.905 114.68 386.32L115.932 384.76C115.39 384.324 114.831 383.898 114.244 383.481L113.085 385.111ZM117.746 388.98C117.997 389.208 118.25 389.44 118.507 389.675L119.856 388.199C119.6 387.964 119.345 387.731 119.093 387.501L117.746 388.98ZM118.507 389.675C118.773 389.919 119.045 390.167 119.321 390.418L120.667 388.939C120.393 388.69 120.124 388.443 119.856 388.199L118.507 389.675ZM122.663 393.35C122.943 393.583 123.231 393.819 123.526 394.058L124.783 392.502C124.496 392.27 124.216 392.04 123.944 391.813L122.663 393.35ZM123.526 394.058C123.793 394.273 124.061 394.485 124.331 394.693L125.554 393.111C125.295 392.911 125.038 392.708 124.783 392.502L123.526 394.058ZM127.668 397.048C128.245 397.418 128.826 397.773 129.411 398.114L130.417 396.385C129.857 396.059 129.301 395.719 128.749 395.365L127.668 397.048ZM133.028 400.012C133.648 400.303 134.271 400.579 134.896 400.841L135.667 398.995C135.068 398.745 134.472 398.481 133.88 398.202L133.028 400.012ZM138.731 402.25C139.383 402.458 140.036 402.65 140.691 402.828L141.215 400.898C140.588 400.728 139.962 400.543 139.338 400.344L138.731 402.25ZM144.676 403.727C145.35 403.848 146.023 403.954 146.694 404.046L146.963 402.064C146.32 401.976 145.676 401.875 145.031 401.758L144.676 403.727ZM150.763 404.419C151.448 404.451 152.129 404.469 152.807 404.471L152.814 402.471C152.166 402.469 151.514 402.452 150.859 402.421L150.763 404.419ZM156.893 404.302C157.577 404.243 158.255 404.168 158.927 404.079L158.663 402.096C158.021 402.182 157.374 402.253 156.72 402.31L156.893 404.302ZM162.956 403.344C163.627 403.187 164.289 403.015 164.941 402.828L164.389 400.906C163.769 401.084 163.14 401.247 162.502 401.396L162.956 403.344ZM168.82 401.487C169.46 401.225 170.088 400.947 170.702 400.653L169.839 398.849C169.26 399.126 168.668 399.388 168.063 399.635L168.82 401.487ZM174.306 398.641C174.89 398.263 175.456 397.868 176.003 397.456L174.799 395.859C174.291 396.241 173.764 396.609 173.219 396.963L174.306 398.641ZM179.118 394.707C179.359 394.456 179.594 394.201 179.823 393.941L178.324 392.618C178.114 392.856 177.898 393.089 177.677 393.32L179.118 394.707ZM179.823 393.941C180.059 393.674 180.282 393.409 180.491 393.147L178.928 391.9C178.74 392.134 178.539 392.374 178.324 392.618L179.823 393.941ZM182.625 389.455C182.884 388.689 183.015 387.937 183.012 387.203L181.012 387.21C181.014 387.699 180.928 388.231 180.731 388.813L182.625 389.455ZM181.288 382.987C180.825 382.468 180.281 381.987 179.673 381.537L178.485 383.146C179.003 383.529 179.44 383.92 179.797 384.319L181.288 382.987ZM176.063 379.499C175.466 379.233 174.838 378.978 174.182 378.734L173.483 380.607C174.105 380.839 174.694 381.079 175.25 381.326L176.063 379.499ZM170.362 377.497C169.734 377.32 169.09 377.148 168.431 376.982L167.942 378.921C168.584 379.083 169.21 379.25 169.817 379.422L170.362 377.497ZM164.553 376.094C164.231 376.026 163.906 375.96 163.579 375.895L163.186 377.856C163.509 377.92 163.828 377.986 164.145 378.052L164.553 376.094ZM163.579 375.895C163.154 375.81 162.733 375.729 162.316 375.653L161.955 377.62C162.363 377.695 162.773 377.773 163.186 377.856L163.579 375.895ZM157.263 374.847C156.84 374.786 156.42 374.726 156.004 374.668L155.724 376.648C156.14 376.707 156.558 376.766 156.979 376.826L157.263 374.847ZM156.004 374.668C155.701 374.625 155.4 374.582 155.1 374.539L154.818 376.519C155.119 376.562 155.421 376.605 155.724 376.648L156.004 374.668ZM151.514 373.992C150.917 373.891 150.328 373.784 149.744 373.668L149.356 375.63C149.961 375.75 150.569 375.86 151.18 375.964L151.514 373.992ZM146.274 372.84C145.707 372.677 145.145 372.499 144.587 372.304L143.927 374.192C144.523 374.4 145.121 374.589 145.721 374.762L146.274 372.84ZM141.342 370.935C140.826 370.676 140.312 370.396 139.799 370.092L138.781 371.814C139.334 372.141 139.889 372.443 140.445 372.722L141.342 370.935ZM136.894 368.104C136.665 367.925 136.436 367.739 136.206 367.548L134.926 369.085C135.171 369.289 135.416 369.486 135.661 369.678L136.894 368.104ZM136.209 367.551C135.963 367.344 135.723 367.136 135.49 366.929L134.161 368.424C134.408 368.644 134.662 368.863 134.923 369.082L136.209 367.551ZM132.881 364.3C132.465 363.818 132.084 363.339 131.734 362.862L130.121 364.043C130.503 364.565 130.918 365.087 131.368 365.607L132.881 364.3ZM129.873 359.742C129.611 359.179 129.39 358.621 129.207 358.068L127.309 358.697C127.516 359.324 127.766 359.954 128.06 360.585L129.873 359.742ZM128.514 354.557C128.473 353.952 128.473 353.354 128.51 352.764L126.513 352.641C126.472 353.314 126.472 353.998 126.518 354.69L128.514 354.557ZM129.163 349.227C129.341 348.647 129.55 348.078 129.786 347.521L127.945 346.74C127.683 347.357 127.45 347.991 127.251 348.64L129.163 349.227ZM131.52 344.299C131.86 343.78 132.219 343.279 132.591 342.798L131.009 341.575C130.607 342.095 130.217 342.638 129.847 343.203L131.52 344.299ZM135.059 340.051C135.519 339.608 135.98 339.198 136.433 338.824L135.159 337.282C134.667 337.688 134.169 338.132 133.672 338.61L135.059 340.051ZM139.433 336.786C139.716 336.642 139.971 336.528 140.197 336.444L139.494 334.571C139.186 334.687 138.86 334.833 138.523 335.005L139.433 336.786ZM139.065 334.883C138.854 335.146 138.631 335.466 138.403 335.828L140.095 336.894C140.295 336.577 140.475 336.322 140.626 336.132L139.065 334.883ZM136.466 339.714C136.208 340.354 135.959 341.033 135.73 341.741L137.633 342.358C137.847 341.696 138.08 341.06 138.321 340.461L136.466 339.714ZM134.713 345.948C134.601 346.665 134.522 347.393 134.483 348.122L136.48 348.229C136.515 347.573 136.587 346.913 136.689 346.256L134.713 345.948ZM134.825 352.548C134.996 353.285 135.231 354.008 135.542 354.706L137.369 353.892C137.115 353.321 136.918 352.72 136.774 352.097L134.825 352.548ZM138.267 358.376C138.823 358.855 139.445 359.292 140.138 359.682L141.119 357.939C140.537 357.612 140.024 357.25 139.572 356.861L138.267 358.376ZM144.293 361.238C144.645 361.318 145.007 361.391 145.38 361.456L145.723 359.486C145.383 359.427 145.056 359.361 144.74 359.288L144.293 361.238ZM145.383 361.456C145.69 361.509 145.999 361.563 146.308 361.619L146.662 359.651C146.348 359.594 146.034 359.539 145.72 359.485L145.383 361.456ZM150.01 362.345C150.623 362.475 151.238 362.609 151.854 362.749L152.295 360.798C151.67 360.657 151.046 360.52 150.424 360.388L150.01 362.345ZM155.528 363.628C156.138 363.782 156.748 363.939 157.357 364.1L157.869 362.167C157.252 362.004 156.635 361.844 156.017 361.688L155.528 363.628ZM161.002 365.107C161.609 365.281 162.214 365.459 162.817 365.639L163.389 363.722C162.78 363.54 162.168 363.361 161.555 363.185L161.002 365.107ZM166.431 366.755C167.035 366.948 167.635 367.143 168.231 367.339L168.856 365.44C168.255 365.241 167.649 365.045 167.04 364.85L166.431 366.755ZM171.813 368.556C172.414 368.766 173.009 368.977 173.598 369.188L174.274 367.306C173.68 367.093 173.079 366.88 172.473 366.668L171.813 368.556ZM177.149 370.501C177.747 370.728 178.336 370.955 178.915 371.181L179.643 369.318C179.057 369.09 178.463 368.861 177.86 368.631L177.149 370.501ZM182.422 372.589C183.018 372.835 183.6 373.079 184.169 373.321L184.952 371.481C184.377 371.236 183.788 370.989 183.186 370.741L182.422 372.589ZM187.623 374.839C188.219 375.111 188.792 375.376 189.34 375.636L190.196 373.828C189.638 373.564 189.056 373.294 188.451 373.019L187.623 374.839ZM192.697 377.308C192.984 377.46 193.257 377.608 193.517 377.751L194.483 376C194.212 375.85 193.929 375.697 193.632 375.54L192.697 377.308ZM194.483 377.751C194.743 377.608 195.016 377.46 195.303 377.308L194.368 375.54C194.072 375.697 193.788 375.85 193.517 376L194.483 377.751ZM198.66 375.636C199.208 375.376 199.781 375.11 200.377 374.839L199.549 373.019C198.944 373.294 198.362 373.564 197.804 373.828L198.66 375.636ZM203.832 373.321C204.4 373.079 204.982 372.835 205.578 372.589L204.815 370.741C204.213 370.989 203.624 371.236 203.049 371.481L203.832 373.321ZM209.085 371.181C209.665 370.955 210.253 370.728 210.851 370.501L210.141 368.631C209.538 368.861 208.943 369.09 208.357 369.318L209.085 371.181ZM214.402 369.188C214.991 368.977 215.586 368.766 216.187 368.556L215.527 366.668C214.921 366.88 214.32 367.092 213.726 367.306L214.402 369.188ZM219.77 367.339C220.366 367.143 220.966 366.948 221.569 366.755L220.96 364.85C220.351 365.045 219.745 365.241 219.144 365.439L219.77 367.339ZM225.183 365.638C225.786 365.459 226.391 365.281 226.998 365.107L226.445 363.185C225.832 363.361 225.22 363.54 224.611 363.722L225.183 365.638ZM230.643 364.1C231.252 363.939 231.862 363.782 232.472 363.628L231.983 361.688C231.365 361.844 230.748 362.004 230.131 362.167L230.643 364.1ZM236.146 362.749C236.762 362.609 237.377 362.475 237.99 362.345L237.576 360.388C236.954 360.52 236.33 360.657 235.706 360.798L236.146 362.749ZM241.692 361.619C242.001 361.563 242.31 361.509 242.618 361.456L242.28 359.485C241.966 359.539 241.652 359.594 241.338 359.651L241.692 361.619ZM242.62 361.456C242.993 361.391 243.355 361.318 243.707 361.238L243.26 359.288C242.944 359.361 242.617 359.427 242.277 359.486L242.62 361.456ZM247.862 359.682C248.555 359.292 249.177 358.855 249.733 358.376L248.428 356.861C247.976 357.25 247.463 357.612 246.881 357.939L247.862 359.682ZM252.458 354.706C252.769 354.008 253.004 353.285 253.175 352.548L251.227 352.097C251.082 352.72 250.886 353.321 250.631 353.892L252.458 354.706ZM253.518 348.122C253.478 347.393 253.399 346.665 253.287 345.948L251.311 346.256C251.413 346.913 251.485 347.574 251.52 348.229L253.518 348.122ZM252.27 341.741C252.041 341.033 251.792 340.354 251.534 339.714L249.679 340.461C249.92 341.06 250.153 341.696 250.367 342.358L252.27 341.741ZM249.597 335.828C249.369 335.466 249.146 335.146 248.935 334.883L247.374 336.132C247.525 336.322 247.705 336.577 247.905 336.894L249.597 335.828ZM247.803 336.444C248.029 336.528 248.285 336.642 248.567 336.786L249.477 335.005C249.14 334.833 248.814 334.687 248.506 334.571L247.803 336.444ZM251.567 338.824C252.02 339.198 252.481 339.608 252.941 340.051L254.328 338.61C253.832 338.132 253.333 337.688 252.841 337.282L251.567 338.824ZM255.409 342.798C255.781 343.279 256.14 343.78 256.48 344.299L258.153 343.203C257.783 342.638 257.393 342.095 256.991 341.575L255.409 342.798ZM258.214 347.521C258.45 348.078 258.659 348.647 258.837 349.227L260.749 348.64C260.55 347.991 260.317 347.357 260.055 346.74L258.214 347.521ZM259.491 352.764C259.527 353.354 259.527 353.952 259.486 354.557L261.482 354.69C261.528 353.998 261.528 353.314 261.487 352.641L259.491 352.764ZM258.793 358.068C258.61 358.621 258.389 359.179 258.127 359.742L259.94 360.585C260.234 359.954 260.484 359.324 260.692 358.697L258.793 358.068ZM256.266 362.862C255.916 363.339 255.535 363.818 255.119 364.3L256.632 365.607C257.082 365.087 257.497 364.565 257.879 364.043L256.266 362.862ZM252.51 366.929C252.277 367.136 252.037 367.344 251.791 367.551L253.077 369.082C253.338 368.863 253.592 368.644 253.839 368.424L252.51 366.929ZM251.794 367.548C251.564 367.739 251.335 367.925 251.106 368.104L252.339 369.678C252.584 369.486 252.829 369.289 253.074 369.085L251.794 367.548ZM248.201 370.092C247.688 370.396 247.174 370.676 246.658 370.935L247.556 372.722C248.112 372.443 248.666 372.141 249.219 371.814L248.201 370.092ZM243.413 372.304C242.855 372.499 242.293 372.677 241.726 372.84L242.279 374.762C242.879 374.589 243.477 374.4 244.073 374.192L243.413 372.304ZM238.256 373.668C237.672 373.784 237.083 373.891 236.486 373.992L236.82 375.964C237.431 375.86 238.039 375.75 238.644 375.63L238.256 373.668ZM232.9 374.539C232.601 374.582 232.3 374.625 231.996 374.667L232.277 376.648C232.58 376.605 232.882 376.562 233.182 376.519L232.9 374.539ZM231.996 374.667C231.58 374.726 231.161 374.786 230.738 374.846L231.021 376.826C231.442 376.766 231.86 376.707 232.277 376.648L231.996 374.667ZM225.684 375.653C225.267 375.729 224.846 375.81 224.422 375.895L224.814 377.856C225.227 377.773 225.638 377.695 226.045 377.62L225.684 375.653ZM224.422 375.895C224.094 375.96 223.769 376.026 223.447 376.094L223.855 378.052C224.172 377.985 224.492 377.92 224.814 377.856L224.422 375.895ZM219.569 376.982C218.91 377.148 218.266 377.32 217.639 377.497L218.183 379.422C218.79 379.25 219.416 379.083 220.058 378.921L219.569 376.982ZM213.818 378.733C213.162 378.978 212.534 379.233 211.937 379.499L212.751 381.326C213.306 381.079 213.895 380.839 214.517 380.607L213.818 378.733ZM208.327 381.537C207.719 381.986 207.175 382.468 206.712 382.987L208.203 384.319C208.56 383.92 208.997 383.529 209.515 383.146L208.327 381.537ZM204.988 387.203C204.985 387.937 205.116 388.688 205.375 389.454L207.269 388.813C207.072 388.231 206.986 387.699 206.988 387.21L204.988 387.203ZM207.509 393.147C207.718 393.409 207.941 393.674 208.177 393.941L209.676 392.618C209.461 392.374 209.26 392.134 209.072 391.9L207.509 393.147ZM208.177 393.941C208.406 394.201 208.641 394.456 208.883 394.707L210.323 393.32C210.102 393.089 209.886 392.855 209.676 392.618L208.177 393.941ZM211.997 397.456C212.544 397.868 213.11 398.263 213.694 398.641L214.781 396.963C214.236 396.609 213.709 396.241 213.201 395.859L211.997 397.456ZM217.298 400.653C217.912 400.947 218.54 401.225 219.18 401.486L219.937 399.635C219.332 399.388 218.74 399.126 218.162 398.849L217.298 400.653ZM223.059 402.828C223.711 403.015 224.373 403.187 225.044 403.344L225.498 401.396C224.86 401.247 224.231 401.084 223.611 400.906L223.059 402.828ZM229.073 404.079C229.745 404.168 230.423 404.243 231.107 404.302L231.28 402.31C230.627 402.253 229.979 402.182 229.337 402.096L229.073 404.079ZM235.193 404.471C235.871 404.468 236.553 404.451 237.237 404.418L237.141 402.421C236.487 402.452 235.835 402.469 235.186 402.471L235.193 404.471ZM241.306 404.045C241.978 403.954 242.651 403.848 243.324 403.727L242.969 401.758C242.324 401.875 241.68 401.976 241.037 402.064L241.306 404.045ZM247.309 402.828C247.964 402.65 248.617 402.458 249.269 402.25L248.662 400.344C248.038 400.543 247.412 400.728 246.785 400.898L247.309 402.828ZM253.104 400.841C253.73 400.579 254.352 400.303 254.972 400.012L254.121 398.202C253.528 398.481 252.932 398.745 252.333 398.995L253.104 400.841ZM258.589 398.114C259.174 397.773 259.755 397.418 260.332 397.048L259.251 395.365C258.699 395.719 258.143 396.059 257.583 396.385L258.589 398.114ZM263.669 394.693C263.939 394.485 264.207 394.273 264.474 394.058L263.217 392.502C262.962 392.708 262.705 392.911 262.447 393.111L263.669 394.693ZM264.474 394.058C264.769 393.819 265.057 393.583 265.337 393.35L264.056 391.813C263.784 392.04 263.504 392.27 263.217 392.502L264.474 394.058ZM268.679 390.419C268.955 390.167 269.226 389.919 269.493 389.675L268.143 388.199C267.876 388.444 267.606 388.69 267.332 388.94L268.679 390.419ZM269.469 389.696L269.469 389.696L268.167 388.178L268.167 388.178L269.469 389.696ZM269.469 389.696L269.469 389.696L268.168 388.177L268.168 388.177L269.469 389.696ZM269.494 389.675C269.75 389.44 270.003 389.208 270.254 388.98L268.907 387.501C268.655 387.731 268.4 387.964 268.144 388.199L269.494 389.675ZM273.32 386.32C273.836 385.905 274.364 385.503 274.915 385.111L273.756 383.481C273.17 383.898 272.61 384.324 272.068 384.76L273.32 386.32ZM278.312 383.025C278.877 382.727 279.475 382.435 280.11 382.148L279.288 380.325C278.616 380.628 277.983 380.938 277.381 381.254L278.312 383.025ZM283.854 380.682C284.468 380.472 285.112 380.265 285.79 380.061L285.213 378.146C284.513 378.357 283.846 378.571 283.209 378.789L283.854 380.682ZM289.71 379.002C290.35 378.847 291.014 378.693 291.704 378.541L291.273 376.588C290.57 376.743 289.892 376.9 289.238 377.059L289.71 379.002ZM295.708 377.728C296.36 377.606 297.031 377.485 297.723 377.365L297.381 375.395C296.681 375.516 296.001 375.639 295.34 375.762L295.708 377.728ZM301.776 376.708C302.438 376.607 303.116 376.507 303.811 376.408L303.527 374.428C302.827 374.528 302.144 374.629 301.476 374.73L301.776 376.708ZM307.868 375.859C308.21 375.815 308.555 375.771 308.904 375.728L308.656 373.743C308.305 373.787 307.957 373.831 307.614 373.875L307.868 375.859ZM309.778 374.792C309.795 374.494 309.816 374.186 309.843 373.869L307.85 373.702C307.822 374.036 307.799 374.362 307.781 374.679L309.778 374.792ZM310.326 370.146C310.428 369.546 310.546 368.926 310.678 368.29L308.72 367.882C308.583 368.541 308.461 369.184 308.354 369.809L310.326 370.146ZM311.569 364.617C311.734 364.022 311.91 363.417 312.1 362.803L310.189 362.213C309.993 362.846 309.811 363.47 309.641 364.085L311.569 364.617ZM313.322 359.222C313.539 358.639 313.769 358.051 314.01 357.459L312.157 356.705C311.909 357.315 311.673 357.921 311.448 358.522L313.322 359.222ZM315.536 353.993C315.804 353.428 316.083 352.862 316.372 352.293L314.591 351.384C314.292 351.97 314.005 352.553 313.729 353.135L315.536 353.993ZM318.187 348.976C318.503 348.436 318.829 347.897 319.166 347.358L317.47 346.298C317.123 346.853 316.787 347.409 316.461 347.966L318.187 348.976ZM321.265 344.211C321.628 343.701 322.001 343.192 322.384 342.685L320.79 341.478C320.394 342.001 320.009 342.526 319.635 343.052L321.265 344.211ZM324.758 339.742C325.165 339.267 325.582 338.796 326.009 338.328L324.532 336.979C324.091 337.462 323.66 337.949 323.24 338.439L324.758 339.742ZM328.645 335.617C329.095 335.181 329.556 334.75 330.026 334.324L328.682 332.842C328.196 333.283 327.721 333.729 327.255 334.178L328.645 335.617ZM332.9 331.877C333.389 331.487 333.888 331.101 334.397 330.721L333.199 329.119C332.673 329.512 332.158 329.911 331.652 330.314L332.9 331.877ZM337.491 328.555C338.014 328.213 338.547 327.876 339.088 327.545L338.046 325.838C337.486 326.18 336.936 326.528 336.396 326.882L337.491 328.555ZM342.374 325.675C342.926 325.382 343.487 325.096 344.057 324.815L343.174 323.021C342.587 323.31 342.008 323.605 341.438 323.907L342.374 325.675ZM347.5 323.247C347.792 323.124 348.086 323.003 348.382 322.883L347.633 321.029C347.328 321.152 347.025 321.277 346.724 321.404L347.5 323.247ZM348.382 322.883C348.71 322.751 349.036 322.616 349.36 322.478L348.576 320.638C348.264 320.771 347.95 320.901 347.633 321.029L348.382 322.883ZM353.158 320.688C353.781 320.366 354.394 320.033 354.998 319.69L354.011 317.951C353.429 318.281 352.838 318.602 352.238 318.913L353.158 320.688ZM358.57 317.479C359.154 317.086 359.728 316.684 360.292 316.273L359.113 314.657C358.569 315.054 358.016 315.441 357.454 315.82L358.57 317.479ZM363.586 313.675C364.121 313.221 364.646 312.757 365.161 312.286L363.81 310.81C363.313 311.266 362.806 311.713 362.29 312.152L363.586 313.675ZM368.151 309.346C368.632 308.838 369.104 308.322 369.566 307.8L368.068 306.475C367.621 306.98 367.165 307.479 366.699 307.97L368.151 309.346ZM372.236 304.571C372.663 304.018 373.081 303.46 373.49 302.895L371.869 301.723C371.473 302.27 371.068 302.812 370.654 303.348L372.236 304.571ZM375.838 299.431C376.211 298.842 376.576 298.248 376.932 297.649L375.212 296.627C374.866 297.209 374.512 297.787 374.149 298.359L375.838 299.431ZM378.965 293.997C379.288 293.379 379.601 292.757 379.906 292.132L378.108 291.255C377.811 291.865 377.506 292.471 377.192 293.073L378.965 293.997ZM381.638 288.335C381.912 287.693 382.176 287.049 382.433 286.403L380.574 285.665C380.324 286.296 380.065 286.924 379.798 287.551L381.638 288.335ZM383.879 282.491C384.105 281.831 384.323 281.17 384.533 280.509L382.627 279.904C382.422 280.551 382.208 281.197 381.987 281.842L383.879 282.491ZM385.705 276.51C385.887 275.835 386.06 275.162 386.225 274.489L384.283 274.012C384.121 274.67 383.951 275.33 383.774 275.99L385.705 276.51ZM387.132 270.423C387.27 269.738 387.399 269.054 387.521 268.374L385.552 268.023C385.433 268.689 385.306 269.358 385.171 270.03L387.132 270.423ZM388.165 264.259C388.259 263.564 388.344 262.873 388.422 262.188L386.434 261.964C386.359 262.635 386.275 263.311 386.183 263.991L388.165 264.259ZM388.797 258.041C388.845 257.337 388.884 256.641 388.915 255.953L386.917 255.864C386.887 256.536 386.848 257.217 386.802 257.905L388.797 258.041ZM388.999 251.786C388.996 251.079 388.983 250.383 388.961 249.698L386.962 249.762C386.983 250.428 386.996 251.106 386.999 251.796L388.999 251.786ZM388.702 245.51C388.634 244.796 388.556 244.1 388.468 243.423L386.485 243.683C386.57 244.335 386.645 245.007 386.71 245.698L388.702 245.51ZM387.736 239.269C387.658 238.924 387.576 238.586 387.49 238.257L385.554 238.758C385.635 239.068 385.712 239.387 385.786 239.713L387.736 239.269ZM385.654 238.011C385.499 238.283 385.34 238.556 385.176 238.832L386.896 239.852C387.065 239.567 387.23 239.284 387.391 239.004L385.654 238.011ZM383.112 242.083C382.758 242.607 382.39 243.134 382.01 243.664L383.634 244.831C384.025 244.286 384.404 243.744 384.769 243.204L383.112 242.083ZM379.673 246.729C379.273 247.225 378.862 247.719 378.441 248.211L379.96 249.512C380.394 249.005 380.817 248.496 381.229 247.986L379.673 246.729ZM375.851 251.061C375.407 251.52 374.955 251.974 374.494 252.422L375.888 253.857C376.364 253.394 376.831 252.925 377.29 252.45L375.851 251.061ZM371.651 255.002C371.163 255.415 370.667 255.819 370.165 256.212L371.397 257.787C371.921 257.378 372.436 256.958 372.943 256.53L371.651 255.002ZM367.059 258.445C366.526 258.794 365.986 259.131 365.441 259.454L366.459 261.176C367.032 260.836 367.598 260.483 368.156 260.117L367.059 258.445ZM362.073 261.222C361.496 261.487 360.914 261.734 360.327 261.964L361.055 263.827C361.679 263.583 362.297 263.32 362.907 263.04L362.073 261.222ZM356.729 263.117C356.12 263.269 355.506 263.401 354.887 263.51L355.236 265.479C355.901 265.362 356.561 265.22 357.214 265.057L356.729 263.117ZM351.149 263.894C350.527 263.911 349.9 263.905 349.27 263.874L349.172 265.871C349.854 265.905 350.531 265.911 351.204 265.893L351.149 263.894ZM345.553 263.405C344.948 263.282 344.339 263.135 343.728 262.963L343.186 264.888C343.844 265.073 344.5 265.232 345.154 265.365L345.553 263.405ZM340.17 261.686C339.607 261.439 339.041 261.171 338.473 260.879L337.559 262.658C338.164 262.969 338.767 263.255 339.369 263.518L340.17 261.686ZM335.199 258.953C334.683 258.609 334.164 258.245 333.644 257.861L332.456 259.47C333.002 259.873 333.547 260.256 334.092 260.618L335.199 258.953ZM330.669 255.448C330.205 255.038 329.74 254.61 329.275 254.166L327.893 255.612C328.377 256.074 328.86 256.518 329.344 256.946L330.669 255.448ZM326.591 251.416C326.372 251.176 326.153 250.931 325.933 250.683L324.435 252.008C324.662 252.264 324.888 252.516 325.115 252.764L326.591 251.416ZM325.933 250.683C325.711 250.433 325.494 250.183 325.281 249.934L323.763 251.236C323.983 251.493 324.207 251.75 324.435 252.008L325.933 250.683ZM322.851 246.903C322.454 246.369 322.077 245.84 321.718 245.315L320.067 246.444C320.441 246.991 320.834 247.542 321.247 248.097L322.851 246.903ZM319.678 242.02C319.36 241.444 319.064 240.874 318.79 240.308L316.99 241.18C317.28 241.779 317.593 242.382 317.929 242.989L319.678 242.02ZM317.329 236.759C317.121 236.143 316.938 235.533 316.78 234.928L314.845 235.434C315.015 236.085 315.211 236.74 315.434 237.4L317.329 236.759ZM316.095 231.182C316.029 230.544 315.988 229.91 315.972 229.281L313.973 229.332C313.99 230.013 314.034 230.699 314.106 231.39L316.095 231.182ZM316.172 225.476C316.253 224.844 316.358 224.215 316.485 223.589L314.524 223.193C314.389 223.864 314.276 224.539 314.188 225.22L316.172 225.476ZM317.488 219.883C317.692 219.278 317.914 218.674 318.153 218.072L316.295 217.333C316.043 217.967 315.808 218.604 315.592 219.244L317.488 219.883ZM319.75 214.537C320.039 213.961 320.342 213.386 320.657 212.811L318.902 211.85C318.577 212.444 318.263 213.04 317.963 213.638L319.75 214.537ZM322.636 209.434C322.978 208.883 323.33 208.331 323.689 207.778L322.012 206.688C321.646 207.251 321.288 207.814 320.937 208.379L322.636 209.434ZM325.888 204.512C326.261 203.974 326.639 203.435 327.021 202.894L325.388 201.74C325.003 202.284 324.621 202.829 324.244 203.373L325.888 204.512ZM329.324 199.674C329.517 199.406 329.711 199.137 329.905 198.868L328.282 197.699C328.088 197.968 327.895 198.236 327.701 198.505L329.324 199.674ZM329.905 198.868C330.088 198.614 330.272 198.359 330.456 198.104L328.833 196.935C328.649 197.19 328.466 197.444 328.282 197.699L329.905 198.868ZM332.656 195.031C333.02 194.517 333.384 194 333.745 193.482L332.105 192.338C331.746 192.852 331.386 193.364 331.024 193.874L332.656 195.031ZM335.882 190.346C336.232 189.818 336.579 189.288 336.921 188.754L335.237 187.675C334.901 188.199 334.56 188.721 334.215 189.241L335.882 190.346ZM338.918 185.509C339.24 184.96 339.557 184.408 339.866 183.852L338.118 182.88C337.817 183.421 337.509 183.96 337.194 184.496L338.918 185.509ZM341.635 180.458C341.914 179.883 342.183 179.303 342.444 178.719L340.616 177.906C340.366 178.469 340.105 179.029 339.835 179.586L341.635 180.458ZM343.88 175.153C344.097 174.55 344.302 173.941 344.495 173.327L342.586 172.729C342.402 173.315 342.206 173.898 341.998 174.477L343.88 175.153ZM345.486 169.598C345.623 168.97 345.745 168.337 345.852 167.699L343.88 167.368C343.778 167.974 343.662 168.575 343.532 169.173L345.486 169.598ZM346.302 163.856C346.345 163.217 346.371 162.572 346.381 161.921L344.381 161.89C344.372 162.507 344.347 163.118 344.306 163.724L346.302 163.856ZM346.244 158.054C346.216 157.734 346.184 157.412 346.149 157.088L344.161 157.309C344.195 157.616 344.225 157.921 344.251 158.226L346.244 158.054ZM346.149 157.088C346.11 156.744 346.071 156.401 346.032 156.06L344.045 156.289C344.084 156.628 344.123 156.968 344.161 157.309L346.149 157.088ZM345.527 151.991C345.437 151.312 345.344 150.639 345.249 149.972L343.269 150.254C343.363 150.915 343.455 151.582 343.544 152.255L345.527 151.991ZM344.63 145.911C344.52 145.231 344.407 144.558 344.292 143.891L342.321 144.232C342.435 144.892 342.547 145.558 342.656 146.231L344.63 145.911ZM343.548 139.856C343.415 139.178 343.28 138.507 343.141 137.843L341.183 138.251C341.32 138.907 341.454 139.57 341.585 140.241L343.548 139.856ZM342.256 133.835C342.098 133.162 341.937 132.497 341.774 131.84L339.833 132.322C339.994 132.971 340.153 133.627 340.308 134.292L342.256 133.835ZM340.724 127.862C340.538 127.197 340.349 126.54 340.157 125.893L338.239 126.462C338.428 127.099 338.615 127.745 338.798 128.401L340.724 127.862ZM338.919 121.962C338.698 121.302 338.475 120.653 338.248 120.015L336.363 120.683C336.586 121.31 336.805 121.947 337.022 122.595L338.919 121.962ZM336.795 116.164C336.536 115.518 336.274 114.884 336.008 114.262L334.169 115.048C334.429 115.656 334.685 116.276 334.939 116.909L336.795 116.164ZM334.293 110.501C333.986 109.871 333.676 109.255 333.362 108.653L331.589 109.578C331.894 110.163 332.196 110.763 332.495 111.376L334.293 110.501ZM331.339 105.041C330.976 104.438 330.609 103.853 330.239 103.284L328.562 104.374C328.92 104.924 329.274 105.49 329.625 106.073L331.339 105.041ZM327.837 99.8849C327.405 99.3227 326.969 98.7808 326.529 98.259L325 99.5484C325.42 100.047 325.838 100.565 326.252 101.104L327.837 99.8849ZM323.679 95.2049C323.164 94.7083 322.645 94.2369 322.122 93.7901L320.823 95.3104C321.314 95.7306 321.804 96.1753 322.292 96.6451L323.679 95.2049ZM318.745 91.2715C318.446 91.0798 318.146 90.8957 317.845 90.719L316.831 92.4428C317.11 92.6064 317.388 92.7772 317.665 92.9552L318.745 91.2715ZM316.351 91.7369C316.391 91.9907 316.427 92.2808 316.46 92.6065L318.45 92.4091C318.415 92.053 318.373 91.7239 318.326 91.425L316.351 91.7369ZM316.612 96.4435C316.611 97.0542 316.602 97.7023 316.582 98.3845L318.582 98.4405C318.601 97.7417 318.611 97.0756 318.612 96.4457L316.612 96.4435ZM316.389 102.291C316.345 102.919 316.295 103.564 316.237 104.224L318.23 104.397C318.288 103.725 318.339 103.069 318.384 102.429L316.389 102.291ZM315.836 108.111C315.76 108.75 315.678 109.399 315.589 110.057L317.571 110.324C317.661 109.656 317.745 108.997 317.822 108.348L315.836 108.111ZM315.008 113.916C314.902 114.553 314.791 115.195 314.673 115.841L316.641 116.199C316.76 115.543 316.874 114.891 316.981 114.244L315.008 113.916ZM313.912 119.67C313.776 120.303 313.633 120.937 313.485 121.573L315.433 122.028C315.584 121.381 315.728 120.735 315.867 120.092L313.912 119.67ZM312.531 125.355C312.361 125.981 312.185 126.607 312.003 127.23L313.922 127.792C314.108 127.156 314.288 126.518 314.461 125.88L312.531 125.355ZM310.832 130.944C310.623 131.559 310.408 132.171 310.186 132.779L312.065 133.466C312.292 132.843 312.513 132.216 312.726 131.586L310.832 130.944ZM308.762 136.393C308.508 136.99 308.247 137.58 307.979 138.164L309.796 138.999C310.072 138.398 310.341 137.789 310.602 137.175L308.762 136.393ZM306.251 141.624C305.941 142.195 305.623 142.756 305.297 143.306L307.017 144.326C307.357 143.753 307.687 143.17 308.008 142.578L306.251 141.624ZM303.196 146.529C302.823 147.05 302.439 147.557 302.047 148.048L303.611 149.296C304.025 148.776 304.428 148.243 304.821 147.696L303.196 146.529ZM299.501 150.891C299.045 151.341 298.579 151.772 298.102 152.182L299.406 153.698C299.919 153.257 300.419 152.795 300.906 152.314L299.501 150.891ZM295.065 154.415C294.531 154.746 293.985 155.052 293.428 155.333L294.328 157.119C294.939 156.811 295.535 156.476 296.117 156.116L295.065 154.415ZM289.95 156.705C289.356 156.878 288.749 157.025 288.129 157.144L288.506 159.108C289.188 158.977 289.855 158.816 290.509 158.626L289.95 156.705ZM284.407 157.516C283.789 157.523 283.159 157.506 282.516 157.461L282.379 159.457C283.074 159.505 283.759 159.524 284.432 159.516L284.407 157.516ZM278.772 156.924C278.17 156.795 277.558 156.643 276.936 156.469L276.397 158.395C277.057 158.58 277.709 158.741 278.352 158.879L278.772 156.924ZM273.3 155.233C272.729 155.006 272.15 154.76 271.563 154.496L270.742 156.319C271.355 156.595 271.961 156.853 272.561 157.091L273.3 155.233ZM268.11 152.772C267.558 152.47 266.999 152.152 266.435 151.818L265.417 153.54C266.001 153.885 266.578 154.214 267.151 154.527L268.11 152.772ZM263.163 149.751C262.636 149.398 262.104 149.031 261.567 148.65L260.41 150.282C260.961 150.672 261.507 151.048 262.048 151.412L263.163 149.751ZM258.441 146.325C257.943 145.937 257.44 145.538 256.933 145.128L255.675 146.682C256.191 147.1 256.704 147.507 257.213 147.903L258.441 146.325ZM253.907 142.583C253.437 142.174 252.964 141.755 252.488 141.327L251.151 142.815C251.635 143.25 252.116 143.675 252.593 144.091L253.907 142.583ZM249.587 138.643C249.342 138.409 249.096 138.173 248.849 137.935L247.46 139.374C247.71 139.615 247.959 139.855 248.208 140.091L249.587 138.643ZM247.155 138.654C247.155 138.945 247.154 139.231 247.152 139.515L249.152 139.528C249.154 139.24 249.155 138.949 249.155 138.654H247.155ZM247.096 142.965C247.09 143.257 247.083 143.545 247.076 143.831L249.076 143.878C249.082 143.592 249.089 143.303 249.096 143.011L247.096 142.965ZM247.076 143.831C247.068 144.163 247.06 144.493 247.053 144.819L249.053 144.864C249.06 144.539 249.068 144.211 249.076 143.878L247.076 143.831ZM247.013 148.798C247.019 149.47 247.035 150.138 247.065 150.805L249.063 150.716C249.035 150.075 249.019 149.431 249.012 148.779L247.013 148.798ZM247.436 154.832C247.531 155.489 247.646 156.153 247.784 156.83L249.744 156.431C249.614 155.792 249.505 155.165 249.415 154.544L247.436 154.832ZM248.81 160.749C249.008 161.371 249.227 162.007 249.468 162.659L251.344 161.964C251.113 161.34 250.904 160.734 250.715 160.142L248.81 160.749ZM251.011 166.37C251.281 166.959 251.569 167.562 251.875 168.18L253.667 167.293C253.37 166.692 253.091 166.107 252.83 165.536L251.011 166.37ZM253.734 171.715C254.047 172.28 254.374 172.857 254.716 173.447L256.447 172.444C256.111 171.864 255.789 171.298 255.483 170.745L253.734 171.715ZM256.762 176.851C256.936 177.132 257.113 177.416 257.294 177.702L258.986 176.636C258.808 176.353 258.633 176.074 258.461 175.797L256.762 176.851ZM258.406 176.205C258.038 176.104 257.654 176.006 257.258 175.911L256.793 177.857C257.172 177.947 257.532 178.039 257.874 178.133L258.406 176.205ZM252.698 174.984C252.325 174.916 251.947 174.846 251.564 174.776L251.204 176.743C251.587 176.814 251.964 176.883 252.334 176.951L252.698 174.984ZM251.564 174.776C251.255 174.719 250.942 174.662 250.626 174.604L250.264 176.571C250.581 176.629 250.894 176.687 251.204 176.743L251.564 174.776ZM246.865 173.881C246.247 173.755 245.625 173.623 245.001 173.484L244.566 175.436C245.203 175.578 245.837 175.713 246.464 175.841L246.865 173.881ZM241.321 172.569C240.713 172.4 240.109 172.222 239.51 172.033L238.908 173.94C239.531 174.136 240.157 174.321 240.785 174.496L241.321 172.569ZM235.98 170.751C235.402 170.51 234.834 170.254 234.28 169.984L233.404 171.783C233.996 172.071 234.598 172.341 235.209 172.597L235.98 170.751ZM231.077 168.142C230.569 167.794 230.079 167.429 229.612 167.044L228.34 168.587C228.857 169.013 229.394 169.414 229.95 169.793L231.077 168.142ZM227.071 164.462C226.702 163.993 226.359 163.5 226.045 162.984L224.336 164.024C224.693 164.61 225.082 165.168 225.499 165.698L227.071 164.462ZM224.558 159.71C224.38 159.15 224.228 158.566 224.105 157.957L222.144 158.352C222.282 159.032 222.451 159.687 222.652 160.317L224.558 159.71ZM223.733 154.328C223.725 153.734 223.74 153.12 223.78 152.486L221.783 152.361C221.741 153.044 221.724 153.709 221.733 154.355L223.733 154.328ZM224.253 148.782C224.364 148.19 224.494 147.583 224.644 146.961L222.699 146.495C222.542 147.148 222.405 147.787 222.288 148.412L224.253 148.782ZM225.678 143.338C225.868 142.759 226.073 142.169 226.294 141.566L224.415 140.879C224.187 141.502 223.975 142.114 223.778 142.714L225.678 143.338ZM227.704 138.04C227.947 137.478 228.203 136.906 228.471 136.325L226.654 135.487C226.38 136.083 226.118 136.669 225.868 137.247L227.704 138.04ZM230.136 132.909C230.424 132.349 230.722 131.78 231.031 131.204L229.268 130.259C228.953 130.846 228.65 131.425 228.357 131.996L230.136 132.909ZM232.882 127.885C233.044 127.604 233.209 127.321 233.377 127.036L231.653 126.022C231.483 126.311 231.315 126.598 231.15 126.884L232.882 127.885ZM233.377 127.036C233.553 126.736 233.729 126.436 233.903 126.136L232.173 125.133C232.001 125.429 231.828 125.725 231.653 126.022L233.377 127.036ZM235.938 122.522C236.272 121.91 236.6 121.299 236.921 120.689L235.152 119.757C234.835 120.358 234.512 120.96 234.182 121.565L235.938 122.522ZM238.802 116.979C239.107 116.352 239.405 115.726 239.696 115.102L237.883 114.258C237.597 114.872 237.304 115.487 237.004 116.104L238.802 116.979ZM241.379 111.296C241.649 110.651 241.911 110.007 242.165 109.364L240.304 108.631C240.056 109.26 239.799 109.891 239.535 110.523L241.379 111.296ZM243.607 105.448C243.834 104.786 244.051 104.125 244.258 103.464L242.35 102.865C242.148 103.509 241.936 104.155 241.715 104.801L243.607 105.448ZM245.405 99.446C245.579 98.7682 245.742 98.0906 245.895 97.4129L243.944 96.9725C243.796 97.6311 243.637 98.2902 243.468 98.9497L245.405 99.446ZM246.694 93.3044C246.806 92.614 246.907 91.9232 246.997 91.232L245.014 90.9741C244.927 91.644 244.829 92.3137 244.72 92.9834L246.694 93.3044ZM247.401 87.0602C247.445 86.3628 247.477 85.6646 247.498 84.9655L245.498 84.9073C245.479 85.5836 245.447 86.2592 245.405 86.9342L247.401 87.0602ZM247.476 80.7716C247.448 80.075 247.408 79.3772 247.356 78.678L245.362 78.826C245.412 79.5023 245.45 80.1772 245.477 80.8509L247.476 80.7716ZM246.904 74.5105C246.806 73.8224 246.695 73.1327 246.573 72.4414L244.604 72.7899C244.722 73.4596 244.829 74.1274 244.924 74.7935L246.904 74.5105ZM245.71 68.343C245.546 67.6694 245.37 66.9941 245.183 66.3169L243.255 66.85C243.437 67.5077 243.608 68.1633 243.767 68.8168L245.71 68.343ZM243.949 62.3167C243.726 61.662 243.492 61.0053 243.248 60.3466L241.373 61.0425C241.611 61.6843 241.839 62.3238 242.055 62.961L243.949 62.3167ZM241.695 56.4747C241.557 56.1545 241.417 55.8337 241.274 55.5125L239.447 56.3258C239.587 56.6397 239.724 56.953 239.858 57.2657L241.695 56.4747ZM241.274 55.5125C241.137 55.2057 240.997 54.8997 240.853 54.5946L239.044 55.4478C239.182 55.7399 239.316 56.0325 239.447 56.3258L241.274 55.5125ZM238.981 51.0155C238.648 50.4356 238.302 49.8591 237.945 49.2859L236.248 50.3439C236.593 50.8974 236.926 51.4533 237.246 52.0116L238.981 51.0155ZM235.704 45.9434C235.316 45.4019 234.918 44.8635 234.51 44.3282L232.919 45.54C233.315 46.0605 233.702 46.5835 234.079 47.1088L235.704 45.9434ZM231.996 41.2026C231.567 40.6953 231.129 40.1908 230.684 39.6892L229.188 41.0163C229.623 41.5068 230.051 41.9996 230.47 42.4948L231.996 41.2026ZM227.967 36.7531C227.507 36.2751 227.04 35.7999 226.567 35.3273L225.153 36.7416C225.617 37.2057 226.075 37.6722 226.527 38.1409L227.967 36.7531ZM223.695 32.5528C223.211 32.0998 222.722 31.6493 222.228 31.2013L220.884 32.6825C221.371 33.1239 221.852 33.5676 222.329 34.0136L223.695 32.5528ZM219.239 28.5634C218.736 28.1312 218.229 27.7016 217.719 27.2745L216.435 28.8073C216.938 29.2294 217.439 29.6538 217.935 30.0804L219.239 28.5634ZM214.639 24.7511C214.121 24.3365 213.602 23.9243 213.08 23.5145L211.845 25.0875C212.361 25.4933 212.876 25.9014 213.388 26.3118L214.639 24.7511ZM209.93 21.0866C209.401 20.6863 208.871 20.2885 208.34 19.8931L207.145 21.4972C207.672 21.8895 208.198 22.2842 208.722 22.6812L209.93 21.0866ZM205.136 17.5424C204.598 17.1534 204.06 16.7671 203.523 16.3832L202.361 18.0109C202.895 18.3924 203.43 18.7764 203.964 19.1629L205.136 17.5424ZM200.279 14.0932C199.735 13.7129 199.191 13.3353 198.65 12.9604L197.512 14.605C198.051 14.9784 198.592 15.3543 199.134 15.7328L200.279 14.0932ZM195.379 10.7147C195.106 10.5286 194.834 10.3431 194.562 10.1584L193.438 11.8122C193.709 11.9965 193.98 12.1815 194.253 12.3671L195.379 10.7147ZM194.895 10.5381C194.695 10.1384 194.397 9.78241 194.06 9.46593L192.692 10.925C192.92 11.1389 193.044 11.3101 193.106 11.4325L194.895 10.5381ZM190.316 7.22738C189.717 6.96194 189.073 6.69951 188.392 6.44095L187.682 8.31074C188.335 8.55866 188.945 8.80736 189.505 9.05564L190.316 7.22738ZM184.506 5.11917C183.867 4.92237 183.212 4.72847 182.543 4.53801L181.995 6.46146C182.651 6.64833 183.293 6.83815 183.916 7.03039L184.506 5.11917ZM178.601 3.4888C177.945 3.32532 177.284 3.16556 176.621 3.00995L176.164 4.95709C176.819 5.11069 177.471 5.26828 178.118 5.42943L178.601 3.4888ZM172.646 2.1306C171.975 1.99088 171.308 1.85628 170.649 1.72724L170.265 3.69001C170.916 3.81751 171.575 3.95051 172.238 4.08857L172.646 2.1306ZM166.641 0.995543C165.952 0.879128 165.28 0.770828 164.63 0.671291L164.328 2.64824C164.967 2.74615 165.629 2.85281 166.308 2.96761L166.641 0.995543ZM160.576 0.134018C160.221 0.0960371 159.879 0.0626626 159.554 0.0341351L159.379 2.0265C159.691 2.05381 160.019 2.08592 160.364 2.1227L160.576 0.134018ZM159.621 0.0423306C159.594 0.0380657 159.567 0.0341089 159.54 0.0304668L159.273 2.01264C159.286 2.01433 159.299 2.01622 159.312 2.01831L159.621 0.0423306ZM159.195 0.00143009C159.164 0.000482857 159.133 0 159.103 0V2C159.112 2 159.122 2.00015 159.133 2.00048L159.195 0.00143009ZM159.024 1.9969C159.044 1.99845 159.064 2.00002 159.083 2.00161L159.244 0.00805491C159.223 0.0063827 159.202 0.00473171 159.182 0.00310206L159.024 1.9969ZM159.32 2.02135C159.34 2.02305 159.359 2.02477 159.379 2.0265L159.554 0.0341353C159.533 0.0323207 159.512 0.0305256 159.492 0.0287502L159.32 2.02135ZM145.748 325.797C145.875 325.354 145.925 324.885 145.922 324.408L143.922 324.423C143.924 324.753 143.889 325.026 143.825 325.248L145.748 325.797ZM144.746 319.71C144.461 319.021 144.135 318.316 143.779 317.606L141.991 318.501C142.329 319.176 142.634 319.838 142.898 320.475L144.746 319.71ZM141.541 313.62C141.139 312.966 140.728 312.323 140.319 311.702L138.649 312.803C139.048 313.408 139.447 314.033 139.838 314.668L141.541 313.62ZM137.708 307.983C137.467 307.662 137.236 307.359 137.017 307.077L135.439 308.305C135.649 308.576 135.873 308.869 136.107 309.181L137.708 307.983ZM135.228 307.691V308.563H137.228V307.691H135.228ZM135.228 312.05V313.794H137.228V312.05H135.228ZM135.228 317.28V319.024H137.228V317.28H135.228ZM135.228 322.511V323.383H137.228V322.511H135.228ZM136.638 322.47C136.313 322.325 135.989 322.181 135.665 322.038L134.859 323.868C135.179 324.009 135.499 324.151 135.819 324.295L136.638 322.47ZM131.748 320.378C131.089 320.109 130.431 319.845 129.774 319.587L129.042 321.448C129.691 321.704 130.341 321.964 130.992 322.23L131.748 320.378ZM125.801 318.077C125.133 317.832 124.468 317.591 123.804 317.355L123.133 319.239C123.791 319.473 124.45 319.711 125.111 319.954L125.801 318.077ZM119.792 315.967C119.118 315.74 118.447 315.517 117.779 315.298L117.155 317.198C117.819 317.416 118.485 317.638 119.154 317.863L119.792 315.967ZM113.744 314C113.067 313.786 112.393 313.575 111.723 313.367L111.128 315.276C111.796 315.484 112.467 315.695 113.142 315.908L113.744 314ZM107.679 312.119C107.341 312.016 107.005 311.913 106.669 311.81L106.083 313.722C106.419 313.825 106.755 313.928 107.093 314.032L107.679 312.119ZM106.669 311.81C106.34 311.709 106.013 311.608 105.686 311.508L105.1 313.421C105.426 313.521 105.754 313.621 106.083 313.722L106.669 311.81ZM101.776 310.302C101.12 310.097 100.47 309.893 99.8268 309.689L99.2223 311.596C99.8695 311.801 100.523 312.006 101.181 312.211L101.776 310.302ZM95.9458 308.428C95.295 308.21 94.6522 307.991 94.0178 307.771L93.3612 309.66C94.0037 309.883 94.6538 310.104 95.3111 310.324L95.9458 308.428ZM90.1986 306.379C89.5597 306.134 88.9314 305.886 88.3141 305.634L87.5582 307.486C88.1896 307.743 88.8311 307.997 89.4822 308.247L90.1986 306.379ZM84.6181 304.011C84.0023 303.719 83.4007 303.42 82.8139 303.116L81.8918 304.89C82.5014 305.207 83.1245 305.516 83.7604 305.818L84.6181 304.011ZM79.3441 301.116C78.7781 300.753 78.231 300.379 77.7034 299.995L76.5267 301.613C77.0873 302.021 77.6663 302.416 78.2628 302.799L79.3441 301.116ZM74.6732 297.458C74.2 296.997 73.7503 296.523 73.3247 296.033L71.8146 297.344C72.2785 297.878 72.767 298.394 73.2787 298.891L74.6732 297.458ZM71.0457 292.863C70.7204 292.306 70.4198 291.73 70.1448 291.133L68.3286 291.971C68.6307 292.626 68.961 293.259 69.3186 293.871L71.0457 292.863ZM68.8451 287.447C68.6868 286.826 68.5511 286.185 68.4387 285.523L66.4669 285.858C66.5881 286.572 66.735 287.266 66.9071 287.941L68.8451 287.447ZM68.0591 281.593C68.0492 281.263 68.0442 280.928 68.0442 280.588H66.0442C66.0442 280.947 66.0495 281.302 66.06 281.653L68.0591 281.593ZM66.285 281.239C66.5289 281.524 66.7796 281.796 67.0367 282.055L68.4578 280.648C68.2345 280.423 68.0163 280.186 67.8035 279.938L66.285 281.239ZM70.574 284.709C71.222 285.062 71.8892 285.369 72.5715 285.634L73.2956 283.769C72.6879 283.533 72.0993 283.263 71.532 282.953L70.574 284.709ZM76.7587 286.769C77.4598 286.892 78.1686 286.987 78.8814 287.061L79.0875 285.071C78.4148 285.002 77.7522 284.912 77.102 284.799L76.7587 286.769ZM83.1114 287.287C83.4618 287.292 83.8121 287.294 84.1619 287.294V285.294C83.8201 285.294 83.4789 285.292 83.1385 285.288L83.1114 287.287ZM84.6091 285.4C84.4586 285.325 84.26 285.186 84.0206 284.958L82.6411 286.406C82.9753 286.724 83.3346 286.999 83.7147 287.189L84.6091 285.4ZM81.9021 281.827C81.6217 281.27 81.3469 280.663 81.0841 280.013L79.23 280.763C79.512 281.46 79.8091 282.117 80.1156 282.726L81.9021 281.827ZM79.8367 276.202C79.6728 275.566 79.5249 274.911 79.3964 274.242L77.4323 274.62C77.5688 275.33 77.7259 276.025 77.8999 276.701L79.8367 276.202ZM78.8932 270.262C78.8538 269.599 78.8371 268.932 78.8456 268.263L76.8458 268.238C76.8366 268.956 76.8546 269.672 76.8967 270.381L78.8932 270.262ZM79.2134 264.306C79.3303 263.657 79.4766 263.014 79.6545 262.381L77.7291 261.84C77.533 262.538 77.3727 263.243 77.245 263.952L79.2134 264.306ZM81.1079 258.742C81.4128 258.173 81.7523 257.619 82.1289 257.082L80.4909 255.934C80.0675 256.538 79.6865 257.161 79.3451 257.798L81.1079 258.742ZM84.7306 254.187C84.9742 253.974 85.2269 253.765 85.489 253.562L84.2611 251.983C83.9687 252.21 83.6862 252.444 83.4134 252.682L84.7306 254.187ZM83.9597 253.175C84.1046 253.504 84.2485 253.829 84.3916 254.151L86.2185 253.337C86.0767 253.018 85.934 252.696 85.7904 252.37L83.9597 253.175ZM86.1436 257.977C86.451 258.629 86.7548 259.263 87.0552 259.878L88.8525 259.001C88.5562 258.394 88.2563 257.769 87.9525 257.124L86.1436 257.977ZM88.9695 263.644C89.3101 264.285 89.6472 264.904 89.9813 265.501L91.7266 264.524C91.4 263.94 91.0699 263.335 90.7357 262.706L88.9695 263.644ZM92.1541 269.148C92.5486 269.767 92.9407 270.358 93.3315 270.923L94.9766 269.786C94.6007 269.242 94.2224 268.672 93.8405 268.073L92.1541 269.148ZM95.9236 274.329C96.4017 274.895 96.8812 275.429 97.364 275.936L98.8117 274.556C98.3574 274.079 97.9045 273.574 97.4514 273.038L95.9236 274.329ZM100.544 278.859C101.111 279.313 101.686 279.743 102.271 280.153L103.419 278.515C102.867 278.128 102.327 277.725 101.795 277.298L100.544 278.859ZM105.909 282.42C106.518 282.761 107.141 283.096 107.779 283.428L108.703 281.655C108.079 281.33 107.475 281.005 106.887 280.675L105.909 282.42ZM111.55 285.315C111.861 285.466 112.176 285.62 112.495 285.775L113.371 283.977C113.051 283.821 112.737 283.668 112.427 283.517L111.55 285.315ZM112.495 285.775C112.786 285.917 113.08 286.06 113.379 286.205L114.255 284.408C113.957 284.262 113.661 284.118 113.371 283.977L112.495 285.775ZM116.899 287.947C117.467 288.234 118.048 288.531 118.643 288.839L119.563 287.064C118.962 286.752 118.374 286.452 117.801 286.162L116.899 287.947ZM122.095 290.685C122.652 290.992 123.221 291.311 123.801 291.642L124.791 289.904C124.203 289.568 123.626 289.245 123.061 288.934L122.095 290.685ZM127.175 293.625C127.721 293.956 128.276 294.298 128.842 294.651L129.901 292.954C129.328 292.597 128.765 292.25 128.212 291.915L127.175 293.625ZM132.136 296.767C132.671 297.119 133.215 297.483 133.767 297.856L134.888 296.2C134.329 295.822 133.779 295.454 133.238 295.097L132.136 296.767ZM136.985 300.088C137.25 300.276 137.516 300.466 137.785 300.658L138.951 299.033C138.679 298.839 138.41 298.646 138.142 298.457L136.985 300.088ZM137.785 300.658C138.112 300.893 138.433 301.099 138.749 301.277L139.732 299.536C139.486 299.397 139.225 299.23 138.951 299.033L137.785 300.658ZM143.629 301.644C144.373 301.242 144.974 300.634 145.46 299.939L143.821 298.794C143.46 299.31 143.076 299.67 142.678 299.885L143.629 301.644ZM147.185 295.827C147.359 295.132 147.499 294.42 147.608 293.719L145.632 293.41C145.531 294.061 145.403 294.712 145.245 295.34L147.185 295.827ZM147.95 289.463C147.951 289.075 147.943 288.711 147.925 288.382L145.928 288.487C145.943 288.775 145.951 289.101 145.95 289.458L147.95 289.463ZM146.127 289.034C146.319 289.29 146.505 289.546 146.686 289.801L148.317 288.644C148.126 288.374 147.929 288.104 147.727 287.834L146.127 289.034ZM148.68 292.976C148.986 293.533 149.268 294.088 149.527 294.64L151.337 293.791C151.06 293.2 150.759 292.607 150.433 292.013L148.68 292.976ZM150.88 298.117C151.068 298.72 151.23 299.319 151.368 299.913L153.316 299.458C153.167 298.817 152.992 298.172 152.79 297.523L150.88 298.117ZM151.941 303.583C151.991 304.209 152.017 304.828 152.02 305.439L154.02 305.429C154.016 304.769 153.989 304.1 153.935 303.424L151.941 303.583ZM151.764 309.15C151.675 309.772 151.565 310.384 151.436 310.984L153.392 311.405C153.53 310.759 153.649 310.101 153.744 309.432L151.764 309.15ZM150.406 314.572C150.192 315.167 149.961 315.746 149.717 316.309L151.551 317.105C151.812 316.505 152.059 315.886 152.288 315.25L150.406 314.572ZM148.015 319.643C147.688 320.197 147.352 320.724 147.012 321.224L148.666 322.348C149.029 321.814 149.387 321.251 149.736 320.662L148.015 319.643ZM144.714 324.151C144.499 324.387 144.287 324.608 144.08 324.815L145.494 326.229C145.723 326 145.956 325.757 146.19 325.5L144.714 324.151ZM239.235 287.834C239.032 288.104 238.836 288.374 238.644 288.644L240.275 289.801C240.456 289.546 240.643 289.29 240.835 289.034L239.235 287.834ZM236.528 292.013C236.202 292.607 235.901 293.2 235.624 293.791L237.435 294.64C237.694 294.088 237.976 293.533 238.282 292.976L236.528 292.013ZM234.172 297.523C233.97 298.172 233.795 298.817 233.645 299.458L235.593 299.913C235.732 299.319 235.894 298.72 236.082 298.117L234.172 297.523ZM233.027 303.424C232.973 304.1 232.945 304.769 232.942 305.43L234.942 305.439C234.945 304.828 234.97 304.209 235.021 303.583L233.027 303.424ZM233.217 309.432C233.313 310.101 233.431 310.759 233.57 311.405L235.525 310.984C235.396 310.384 235.286 309.772 235.197 309.15L233.217 309.432ZM234.674 315.25C234.903 315.886 235.149 316.505 235.41 317.105L237.245 316.309C237 315.746 236.77 315.167 236.555 314.572L234.674 315.25ZM237.225 320.662C237.574 321.251 237.933 321.814 238.296 322.348L239.95 321.224C239.61 320.724 239.274 320.197 238.947 319.643L237.225 320.662ZM240.771 325.5C241.006 325.757 241.238 326 241.468 326.229L242.882 324.815C242.675 324.608 242.463 324.387 242.248 324.151L240.771 325.5ZM243.136 325.248C243.073 325.026 243.037 324.753 243.04 324.423L241.04 324.408C241.036 324.885 241.086 325.354 241.213 325.797L243.136 325.248ZM244.064 320.475C244.327 319.838 244.633 319.176 244.971 318.501L243.182 317.606C242.827 318.316 242.501 319.021 242.216 319.71L244.064 320.475ZM247.124 314.668C247.514 314.033 247.914 313.408 248.313 312.803L246.643 311.702C246.234 312.323 245.823 312.966 245.42 313.62L247.124 314.668ZM250.855 309.181C251.089 308.869 251.312 308.576 251.523 308.305L249.944 307.077C249.725 307.359 249.494 307.662 249.254 307.983L250.855 309.181ZM249.733 307.691V308.563H251.733V307.691H249.733ZM249.733 312.05V313.794H251.733V312.05H249.733ZM249.733 317.28V319.024H251.733V317.28H249.733ZM249.733 322.511V323.383H251.733V322.511H249.733ZM251.143 324.295C251.463 324.151 251.782 324.009 252.102 323.868L251.296 322.038C250.972 322.181 250.648 322.325 250.324 322.47L251.143 324.295ZM255.969 322.23C256.62 321.964 257.27 321.704 257.92 321.448L257.188 319.587C256.531 319.845 255.873 320.109 255.214 320.378L255.969 322.23ZM261.85 319.954C262.511 319.711 263.171 319.473 263.829 319.239L263.158 317.355C262.494 317.591 261.828 317.832 261.161 318.077L261.85 319.954ZM267.807 317.863C268.476 317.638 269.142 317.416 269.806 317.198L269.182 315.298C268.514 315.517 267.843 315.74 267.17 315.967L267.807 317.863ZM273.82 315.908C274.494 315.695 275.165 315.484 275.833 315.276L275.239 313.367C274.569 313.575 273.895 313.786 273.217 314L273.82 315.908ZM279.869 314.032C280.206 313.928 280.543 313.825 280.878 313.722L280.292 311.81C279.957 311.913 279.62 312.016 279.282 312.119L279.869 314.032ZM280.878 313.722C281.207 313.621 281.535 313.521 281.862 313.421L281.275 311.508C280.949 311.608 280.621 311.709 280.292 311.81L280.878 313.722ZM285.78 312.211C286.439 312.006 287.092 311.801 287.739 311.596L287.135 309.689C286.491 309.893 285.841 310.097 285.185 310.302L285.78 312.211ZM291.65 310.324C292.308 310.104 292.958 309.883 293.6 309.66L292.944 307.771C292.309 307.991 291.667 308.21 291.016 308.428L291.65 310.324ZM297.479 308.247C298.13 307.997 298.772 307.743 299.403 307.486L298.647 305.634C298.03 305.886 297.402 306.134 296.763 306.379L297.479 308.247ZM303.201 305.818C303.837 305.516 304.46 305.207 305.07 304.89L304.148 303.116C303.561 303.42 302.959 303.719 302.343 304.011L303.201 305.818ZM308.699 302.799C309.295 302.416 309.874 302.021 310.435 301.613L309.258 299.995C308.73 300.379 308.183 300.753 307.617 301.116L308.699 302.799ZM313.683 298.891C314.195 298.394 314.683 297.878 315.147 297.344L313.637 296.033C313.211 296.523 312.761 296.997 312.288 297.458L313.683 298.891ZM317.643 293.871C318 293.259 318.331 292.626 318.633 291.971L316.817 291.133C316.542 291.73 316.241 292.306 315.916 292.863L317.643 293.871ZM320.054 287.941C320.227 287.266 320.373 286.572 320.495 285.858L318.523 285.523C318.41 286.185 318.275 286.826 318.116 287.447L320.054 287.941ZM320.901 281.653C320.912 281.302 320.917 280.947 320.917 280.588H318.917C318.917 280.928 318.912 281.263 318.902 281.593L320.901 281.653ZM319.158 279.938C318.945 280.186 318.727 280.423 318.504 280.648L319.925 282.055C320.182 281.796 320.433 281.524 320.677 281.239L319.158 279.938ZM315.429 282.953C314.862 283.263 314.274 283.533 313.666 283.769L314.39 285.634C315.072 285.369 315.74 285.062 316.388 284.709L315.429 282.953ZM309.86 284.799C309.209 284.912 308.547 285.002 307.874 285.071L308.08 287.061C308.793 286.987 309.502 286.892 310.203 286.769L309.86 284.799ZM303.823 285.288C303.483 285.292 303.141 285.294 302.8 285.294V287.294C303.149 287.294 303.5 287.292 303.85 287.287L303.823 285.288ZM303.247 287.189C303.627 286.999 303.986 286.724 304.32 286.406L302.941 284.958C302.701 285.186 302.503 285.325 302.352 285.4L303.247 287.189ZM306.846 282.726C307.152 282.117 307.45 281.46 307.732 280.763L305.877 280.013C305.615 280.663 305.34 281.27 305.059 281.827L306.846 282.726ZM309.062 276.701C309.236 276.025 309.393 275.33 309.529 274.62L307.565 274.242C307.437 274.911 307.289 275.566 307.125 276.202L309.062 276.701ZM310.065 270.381C310.107 269.672 310.125 268.956 310.116 268.238L308.116 268.263C308.124 268.932 308.108 269.599 308.068 270.262L310.065 270.381ZM309.716 263.952C309.589 263.243 309.429 262.538 309.232 261.84L307.307 262.381C307.485 263.014 307.631 263.657 307.748 264.306L309.716 263.952ZM307.616 257.798C307.275 257.161 306.894 256.538 306.471 255.934L304.833 257.082C305.209 257.619 305.549 258.173 305.854 258.742L307.616 257.798ZM303.548 252.682C303.275 252.444 302.993 252.21 302.7 251.983L301.473 253.562C301.735 253.765 301.987 253.974 302.231 254.187L303.548 252.682ZM301.171 252.37C301.028 252.696 300.885 253.018 300.743 253.337L302.57 254.151C302.713 253.829 302.857 253.504 303.002 253.175L301.171 252.37ZM299.009 257.124C298.705 257.769 298.405 258.394 298.109 259.001L299.906 259.878C300.207 259.263 300.51 258.629 300.818 257.977L299.009 257.124ZM296.226 262.706C295.892 263.335 295.562 263.94 295.235 264.524L296.98 265.501C297.314 264.904 297.651 264.285 297.992 263.644L296.226 262.706ZM293.121 268.073C292.739 268.672 292.361 269.242 291.985 269.786L293.63 270.923C294.021 270.358 294.413 269.767 294.807 269.148L293.121 268.073ZM289.51 273.038C289.057 273.574 288.604 274.079 288.15 274.556L289.598 275.936C290.08 275.429 290.56 274.895 291.038 274.329L289.51 273.038ZM285.167 277.298C284.635 277.725 284.095 278.128 283.543 278.515L284.691 280.153C285.276 279.743 285.851 279.313 286.418 278.859L285.167 277.298ZM280.075 280.675C279.487 281.005 278.882 281.329 278.259 281.655L279.183 283.428C279.821 283.096 280.444 282.761 281.053 282.42L280.075 280.675ZM274.534 283.517C274.224 283.668 273.91 283.821 273.591 283.977L274.467 285.775C274.786 285.62 275.1 285.466 275.411 285.315L274.534 283.517ZM273.591 283.977C273.3 284.118 273.005 284.262 272.706 284.408L273.583 286.205C273.881 286.06 274.175 285.917 274.467 285.775L273.591 283.977ZM269.161 286.162C268.587 286.452 268 286.751 267.398 287.064L268.319 288.839C268.913 288.531 269.494 288.234 270.062 287.947L269.161 286.162ZM263.901 288.934C263.336 289.245 262.759 289.568 262.17 289.904L263.16 291.642C263.741 291.311 264.31 290.992 264.867 290.685L263.901 288.934ZM258.749 291.915C258.196 292.25 257.634 292.597 257.06 292.954L258.12 294.651C258.685 294.298 259.241 293.956 259.786 293.625L258.749 291.915ZM253.724 295.097C253.182 295.454 252.632 295.822 252.074 296.2L253.195 297.856C253.747 297.483 254.29 297.119 254.825 296.766L253.724 295.097ZM248.819 298.457C248.552 298.646 248.282 298.839 248.011 299.033L249.177 300.658C249.445 300.466 249.712 300.276 249.976 300.088L248.819 298.457ZM248.011 299.033C247.736 299.23 247.476 299.397 247.229 299.536L248.213 301.277C248.529 301.099 248.85 300.893 249.177 300.658L248.011 299.033ZM244.283 299.885C243.885 299.67 243.501 299.31 243.141 298.794L241.501 299.939C241.987 300.634 242.588 301.242 243.333 301.644L244.283 299.885ZM241.717 295.34C241.559 294.712 241.431 294.061 241.329 293.41L239.353 293.719C239.463 294.42 239.602 295.132 239.777 295.827L241.717 295.34ZM241.011 289.458C241.01 289.101 241.018 288.775 241.034 288.487L239.036 288.382C239.019 288.711 239.01 289.075 239.011 289.463L241.011 289.458Z" fill="url(#paint0_linear_743_448)"/>
<defs>
<linearGradient id="paint0_linear_743_448" x1="194" y1="1" x2="194" y2="403.471" gradientUnits="userSpaceOnUse">
<stop stop-color="#FFF2A1"/>
<stop offset="1" stop-color="#807111"/>
</linearGradient>
</defs>
</svg>
