<svg width="238" height="174" viewBox="0 0 238 174" fill="none" xmlns="http://www.w3.org/2000/svg">
<g filter="url(#filter0_d_741_97)">
<mask id="path-1-outside-1_741_97" maskUnits="userSpaceOnUse" x="12" y="27" width="214" height="116" fill="black">
<rect fill="white" x="12" y="27" width="214" height="116"/>
<path d="M14.4453 140.812V35.3438L27.8047 29.0156H28.5078V113.039C35.0234 110.836 41.1875 107.883 47 104.18L36.2422 88.7812L48.6172 82.875H49.3203L58.1797 95.6016C64.6484 87.4453 67.8828 72.0938 67.8828 49.5469V35.3438L81.2422 29.0156H81.9453V49.2656C81.9453 72.5156 75.5703 90.1641 62.8203 102.211L85.7422 134.977L73.3672 140.812H72.6641L51.6406 110.789C44.4688 114.82 36.7578 117.914 28.5078 120.07V134.484L15.1484 140.812H14.4453ZM99.8047 101.297V100.594L103.812 92.1562H110.352V56.4375L145.859 29.0156C156.547 29.0156 165.219 32.4141 171.875 39.2109C178.203 45.6797 181.367 54 181.367 64.1719V134.344L168.008 140.812H167.305V64.1719C167.305 57.8906 165.617 52.8047 162.242 48.9141C158.07 44.0859 152.609 41.6719 145.859 41.6719C138.969 41.6719 133.508 44.0859 129.477 48.9141C126.102 52.9453 124.414 58.0313 124.414 64.1719V92.1562H157.461V92.8594L153.453 101.297H124.414V134.484L111.055 140.812H110.352V101.297H99.8047ZM209.492 140.812V35.3438L222.852 29.0156H223.555V134.484L210.195 140.812H209.492Z"/>
</mask>
<path d="M14.4453 140.812V35.3438L27.8047 29.0156H28.5078V113.039C35.0234 110.836 41.1875 107.883 47 104.18L36.2422 88.7812L48.6172 82.875H49.3203L58.1797 95.6016C64.6484 87.4453 67.8828 72.0938 67.8828 49.5469V35.3438L81.2422 29.0156H81.9453V49.2656C81.9453 72.5156 75.5703 90.1641 62.8203 102.211L85.7422 134.977L73.3672 140.812H72.6641L51.6406 110.789C44.4688 114.82 36.7578 117.914 28.5078 120.07V134.484L15.1484 140.812H14.4453ZM99.8047 101.297V100.594L103.812 92.1562H110.352V56.4375L145.859 29.0156C156.547 29.0156 165.219 32.4141 171.875 39.2109C178.203 45.6797 181.367 54 181.367 64.1719V134.344L168.008 140.812H167.305V64.1719C167.305 57.8906 165.617 52.8047 162.242 48.9141C158.07 44.0859 152.609 41.6719 145.859 41.6719C138.969 41.6719 133.508 44.0859 129.477 48.9141C126.102 52.9453 124.414 58.0313 124.414 64.1719V92.1562H157.461V92.8594L153.453 101.297H124.414V134.484L111.055 140.812H110.352V101.297H99.8047ZM209.492 140.812V35.3438L222.852 29.0156H223.555V134.484L210.195 140.812H209.492Z" fill="url(#paint0_linear_741_97)"/>
<path d="M14.4453 140.812H12.4453V142.812H14.4453V140.812ZM14.4453 35.3438L13.5891 33.5363L12.4453 34.0781V35.3438H14.4453ZM27.8047 29.0156V27.0156H27.355L26.9485 27.2081L27.8047 29.0156ZM28.5078 29.0156H30.5078V27.0156H28.5078V29.0156ZM28.5078 113.039H26.5078V115.827L29.1484 114.934L28.5078 113.039ZM47 104.18L48.0746 105.866L49.8347 104.745L48.6395 103.034L47 104.18ZM36.2422 88.7812L35.3807 86.9763L33.2514 87.9925L34.6027 89.9267L36.2422 88.7812ZM48.6172 82.875V80.875H48.1644L47.7557 81.07L48.6172 82.875ZM49.3203 82.875L50.9618 81.7323L50.3649 80.875H49.3203V82.875ZM58.1797 95.6016L56.5382 96.7442L58.0751 98.952L59.7467 96.8444L58.1797 95.6016ZM67.8828 35.3438L67.0266 33.5363L65.8828 34.0781V35.3438H67.8828ZM81.2422 29.0156V27.0156H80.7925L80.386 27.2081L81.2422 29.0156ZM81.9453 29.0156H83.9453V27.0156H81.9453V29.0156ZM62.8203 102.211L61.4468 100.757L60.1919 101.943L61.1815 103.357L62.8203 102.211ZM85.7422 134.977L86.5953 136.786L88.7407 135.774L87.381 133.83L85.7422 134.977ZM73.3672 140.812V142.812H73.8151L74.2203 142.621L73.3672 140.812ZM72.6641 140.812L71.0258 141.96L71.6229 142.812H72.6641V140.812ZM51.6406 110.789L53.2789 109.642L52.2398 108.158L50.6606 109.046L51.6406 110.789ZM28.5078 120.07L28.0021 118.135L26.5078 118.526V120.07H28.5078ZM28.5078 134.484L29.364 136.292L30.5078 135.75V134.484H28.5078ZM15.1484 140.812V142.812H15.5982L16.0046 142.62L15.1484 140.812ZM16.4453 140.812V35.3438H12.4453V140.812H16.4453ZM15.3015 37.1512L28.6609 30.8231L26.9485 27.2081L13.5891 33.5363L15.3015 37.1512ZM27.8047 31.0156H28.5078V27.0156H27.8047V31.0156ZM26.5078 29.0156V113.039H30.5078V29.0156H26.5078ZM29.1484 114.934C35.8169 112.679 42.1266 109.656 48.0746 105.866L45.9254 102.493C40.2484 106.11 34.23 108.993 27.8672 111.144L29.1484 114.934ZM48.6395 103.034L37.8817 87.6358L34.6027 89.9267L45.3605 105.325L48.6395 103.034ZM37.1036 90.5862L49.4786 84.68L47.7557 81.07L35.3807 86.9763L37.1036 90.5862ZM48.6172 84.875H49.3203V80.875H48.6172V84.875ZM47.6789 84.0177L56.5382 96.7442L59.8211 94.4589L50.9618 81.7323L47.6789 84.0177ZM59.7467 96.8444C63.2465 92.4315 65.7626 86.2216 67.4141 78.383C69.0692 70.527 69.8828 60.9043 69.8828 49.5469H65.8828C65.8828 60.7364 65.0792 70.0628 63.5 77.5584C61.9171 85.0714 59.5816 90.6154 56.6127 94.3588L59.7467 96.8444ZM69.8828 49.5469V35.3438H65.8828V49.5469H69.8828ZM68.739 37.1512L82.0984 30.8231L80.386 27.2081L67.0266 33.5363L68.739 37.1512ZM81.2422 31.0156H81.9453V27.0156H81.2422V31.0156ZM79.9453 29.0156V49.2656H83.9453V29.0156H79.9453ZM79.9453 49.2656C79.9453 72.1525 73.6787 89.1998 61.4468 100.757L64.1939 103.665C77.4619 91.1283 83.9453 72.8787 83.9453 49.2656H79.9453ZM61.1815 103.357L84.1034 136.123L87.381 133.83L64.4591 101.064L61.1815 103.357ZM84.8891 133.168L72.5141 139.004L74.2203 142.621L86.5953 136.786L84.8891 133.168ZM73.3672 138.812H72.6641V142.812H73.3672V138.812ZM74.3023 139.665L53.2789 109.642L50.0023 111.936L71.0258 141.96L74.3023 139.665ZM50.6606 109.046C43.6434 112.99 36.0925 116.021 28.0021 118.135L29.0136 122.005C37.4231 119.807 45.2941 116.651 52.6206 112.533L50.6606 109.046ZM26.5078 120.07V134.484H30.5078V120.07H26.5078ZM27.6516 132.677L14.2923 139.005L16.0046 142.62L29.364 136.292L27.6516 132.677ZM15.1484 138.812H14.4453V142.812H15.1484V138.812ZM99.8047 101.297H97.8047V103.297H99.8047V101.297ZM99.8047 100.594L97.9981 99.7356L97.8047 100.143V100.594H99.8047ZM103.812 92.1562V90.1562H102.548L102.006 91.2981L103.812 92.1562ZM110.352 92.1562V94.1562H112.352V92.1562H110.352ZM110.352 56.4375L109.129 54.8546L108.352 55.4551V56.4375H110.352ZM145.859 29.0156V27.0156H145.177L144.637 27.4327L145.859 29.0156ZM171.875 39.2109L173.305 37.8123L173.304 37.8116L171.875 39.2109ZM181.367 134.344L182.239 136.144L183.367 135.597V134.344H181.367ZM168.008 140.812V142.812H168.467L168.879 142.613L168.008 140.812ZM167.305 140.812H165.305V142.812H167.305V140.812ZM162.242 48.9141L160.729 50.2217L160.731 50.2246L162.242 48.9141ZM129.477 48.9141L131.01 50.1979L131.012 50.1959L129.477 48.9141ZM124.414 92.1562H122.414V94.1562H124.414V92.1562ZM157.461 92.1562H159.461V90.1562H157.461V92.1562ZM157.461 92.8594L159.267 93.7175L159.461 93.3102V92.8594H157.461ZM153.453 101.297V103.297H154.717L155.26 102.155L153.453 101.297ZM124.414 101.297V99.2969H122.414V101.297H124.414ZM124.414 134.484L125.27 136.292L126.414 135.75V134.484H124.414ZM111.055 140.812V142.812H111.504L111.911 142.62L111.055 140.812ZM110.352 140.812H108.352V142.812H110.352V140.812ZM110.352 101.297H112.352V99.2969H110.352V101.297ZM101.805 101.297V100.594H97.8047V101.297H101.805ZM101.611 101.452L105.619 93.0144L102.006 91.2981L97.9981 99.7356L101.611 101.452ZM103.812 94.1562H110.352V90.1562H103.812V94.1562ZM112.352 92.1562V56.4375H108.352V92.1562H112.352ZM111.574 58.0204L147.082 30.5985L144.637 27.4327L109.129 54.8546L111.574 58.0204ZM145.859 31.0156C156.082 31.0156 164.214 34.2466 170.446 40.6103L173.304 37.8116C166.223 30.5815 157.012 27.0156 145.859 27.0156V31.0156ZM170.445 40.6095C176.361 46.657 179.367 54.4523 179.367 64.1719H183.367C183.367 53.5477 180.045 44.7024 173.305 37.8123L170.445 40.6095ZM179.367 64.1719V134.344H183.367V64.1719H179.367ZM180.496 132.544L167.136 139.012L168.879 142.613L182.239 136.144L180.496 132.544ZM168.008 138.812H167.305V142.812H168.008V138.812ZM169.305 140.812V64.1719H165.305V140.812H169.305ZM169.305 64.1719C169.305 57.5193 167.509 51.9333 163.753 47.6035L160.731 50.2246C163.725 53.6761 165.305 58.2619 165.305 64.1719H169.305ZM163.756 47.6064C159.179 42.3105 153.152 39.6719 145.859 39.6719V43.6719C152.067 43.6719 156.961 45.8614 160.729 50.2217L163.756 47.6064ZM145.859 39.6719C138.44 39.6719 132.392 42.3019 127.941 47.6322L131.012 50.1959C134.624 45.87 139.497 43.6719 145.859 43.6719V39.6719ZM127.943 47.6302C124.217 52.0802 122.414 57.6447 122.414 64.1719H126.414C126.414 58.4178 127.986 53.8104 131.01 50.1979L127.943 47.6302ZM122.414 64.1719V92.1562H126.414V64.1719H122.414ZM124.414 94.1562H157.461V90.1562H124.414V94.1562ZM155.461 92.1562V92.8594H159.461V92.1562H155.461ZM155.654 92.0013L151.647 100.439L155.26 102.155L159.267 93.7175L155.654 92.0013ZM153.453 99.2969H124.414V103.297H153.453V99.2969ZM122.414 101.297V134.484H126.414V101.297H122.414ZM123.558 132.677L110.199 139.005L111.911 142.62L125.27 136.292L123.558 132.677ZM111.055 138.812H110.352V142.812H111.055V138.812ZM112.352 140.812V101.297H108.352V140.812H112.352ZM110.352 99.2969H99.8047V103.297H110.352V99.2969ZM209.492 140.812H207.492V142.812H209.492V140.812ZM209.492 35.3438L208.636 33.5363L207.492 34.0781V35.3438H209.492ZM222.852 29.0156V27.0156H222.402L221.995 27.2081L222.852 29.0156ZM223.555 29.0156H225.555V27.0156H223.555V29.0156ZM223.555 134.484L224.411 136.292L225.555 135.75V134.484H223.555ZM210.195 140.812V142.812H210.645L211.051 142.62L210.195 140.812ZM211.492 140.812V35.3438H207.492V140.812H211.492ZM210.348 37.1512L223.708 30.8231L221.995 27.2081L208.636 33.5363L210.348 37.1512ZM222.852 31.0156H223.555V27.0156H222.852V31.0156ZM221.555 29.0156V134.484H225.555V29.0156H221.555ZM222.699 132.677L209.339 139.005L211.051 142.62L224.411 136.292L222.699 132.677ZM210.195 138.812H209.492V142.812H210.195V138.812Z" fill="url(#paint1_linear_741_97)" mask="url(#path-1-outside-1_741_97)"/>
</g>
<g filter="url(#filter1_i_741_97)">
<path d="M222 24L207 31L203 21L222 6L229 13L225 24H222Z" fill="#D21A1A"/>
</g>
<defs>
<filter id="filter0_d_741_97" x="4.44531" y="23.0156" width="229.109" height="131.797" filterUnits="userSpaceOnUse" color-interpolation-filters="sRGB">
<feFlood flood-opacity="0" result="BackgroundImageFix"/>
<feColorMatrix in="SourceAlpha" type="matrix" values="0 0 0 0 0 0 0 0 0 0 0 0 0 0 0 0 0 0 127 0" result="hardAlpha"/>
<feOffset dy="4"/>
<feGaussianBlur stdDeviation="4"/>
<feComposite in2="hardAlpha" operator="out"/>
<feColorMatrix type="matrix" values="0 0 0 0 0 0 0 0 0 0 0 0 0 0 0 0 0 0 0.5 0"/>
<feBlend mode="normal" in2="BackgroundImageFix" result="effect1_dropShadow_741_97"/>
<feBlend mode="normal" in="SourceGraphic" in2="effect1_dropShadow_741_97" result="shape"/>
</filter>
<filter id="filter1_i_741_97" x="203" y="6" width="27" height="26" filterUnits="userSpaceOnUse" color-interpolation-filters="sRGB">
<feFlood flood-opacity="0" result="BackgroundImageFix"/>
<feBlend mode="normal" in="SourceGraphic" in2="BackgroundImageFix" result="shape"/>
<feColorMatrix in="SourceAlpha" type="matrix" values="0 0 0 0 0 0 0 0 0 0 0 0 0 0 0 0 0 0 127 0" result="hardAlpha"/>
<feOffset dx="1" dy="1"/>
<feGaussianBlur stdDeviation="1"/>
<feComposite in2="hardAlpha" operator="arithmetic" k2="-1" k3="1"/>
<feColorMatrix type="matrix" values="0 0 0 0 0.518522 0 0 0 0 0.091771 0 0 0 0 0.091771 0 0 0 1 0"/>
<feBlend mode="normal" in2="shape" result="effect1_innerShadow_741_97"/>
</filter>
<linearGradient id="paint0_linear_741_97" x1="249.5" y1="9.5" x2="-24" y2="162" gradientUnits="userSpaceOnUse">
<stop stop-color="white"/>
<stop offset="1" stop-color="#A2A2A2"/>
</linearGradient>
<linearGradient id="paint1_linear_741_97" x1="238" y1="36" x2="-24" y2="138" gradientUnits="userSpaceOnUse">
<stop stop-color="white"/>
<stop offset="1" stop-color="#D9D9D9"/>
</linearGradient>
</defs>
</svg>
