<svg width="54" height="60" viewBox="0 0 54 60" fill="none" xmlns="http://www.w3.org/2000/svg">
<g filter="url(#filter0_d_743_156)">
<path fill-rule="evenodd" clip-rule="evenodd" d="M23.7896 50.4761C22.5607 50.2152 21.3661 49.9615 20.5 48.0198C21.6511 48.0994 25.0222 48.2586 25.7622 47.2238C26.0089 46.8258 26.3378 46.6666 26.6667 46.6666V46.6666C26.9956 46.6666 27.3244 46.8258 27.5711 47.2238C28.3111 48.2586 31.6822 48.0994 32.8333 48.0198C31.9673 49.9616 30.7727 50.2152 29.5438 50.4761C28.556 50.6859 27.546 50.9003 26.6667 51.9999V51.9999C26.6667 51.9999 26.6667 51.9999 26.6667 51.9999C26.6667 51.9999 26.6667 51.9999 26.6667 51.9999V51.9999C25.7873 50.9003 24.7774 50.6858 23.7896 50.4761Z" fill="white"/>
<path fill-rule="evenodd" clip-rule="evenodd" d="M20.3393 39.0833C20.0059 39.5 19.0893 41.6667 21.0059 42C23.202 42.3765 25.7008 43.3839 26.6666 43.9167L26.6666 43.6532L26.6667 43.9167C27.6325 43.3839 30.1313 42.3765 32.3274 42C34.244 41.6667 33.3274 39.5 32.994 39.0833C33.6607 39.3333 35.5774 41.1667 33.494 42.9167C32.7393 43.5456 31.9847 43.6524 31.1225 43.7744H31.1225C30.8422 43.8141 30.5507 43.8553 30.244 43.9167C28.5774 44.25 27.4734 44.7711 28.4107 45.8333C29.6607 47.25 32.6607 47.5833 34.8274 45.8333C35.052 45.6519 35.2363 45.4833 35.4083 45.326L35.4084 45.3259C36.2293 44.575 36.7704 44.0801 40.0774 43.6667C40.1607 42.1945 41.194 38.9 44.6607 37.5C48.994 35.75 49.744 30 49.1607 27.75C48.0496 29.6945 45.0607 32.7167 41.994 29.25C39.7829 26.7504 41.0654 24.9717 42.4508 23.0503C43.4672 21.6407 44.539 20.1543 44.3274 18.25C43.8274 13.75 42.494 11.4167 41.0774 10.5833C41.3274 12.1667 40.244 23.0833 32.994 16.0833C32.994 16.301 32.9893 16.5013 32.9848 16.6909V16.6909V16.6909C32.9568 17.8799 32.9388 18.6427 34.1607 20.5833C33.9439 20.5235 33.6719 20.4737 33.3714 20.4187C31.4383 20.0646 28.3267 19.4947 31.1667 14.6667C32.8334 11.8333 33.3817 9.33334 32.0834 6.41667C31.1627 4.34848 28.75 2.58334 26.6667 1.16667L26.6665 1.16655C26.4195 0.673149 23.7171 0.0986405 22.6317 0.00354236C22.6164 0.0011482 22.6023 0 22.5893 0L22.6317 0.00354236C22.9759 0.0573775 23.896 0.741199 25.1726 3.16667C26.6148 5.90683 25.3739 6.33829 24.0956 6.78275C23.8966 6.85194 23.6967 6.92143 23.5059 7C22.0893 7.58333 19.3393 9.08333 20.5893 11.9167C23.3226 17.7833 20.7837 20.1389 19.1726 20.5833C20.3945 18.6427 20.3765 17.8799 20.3485 16.6909V16.6909V16.6909C20.344 16.5013 20.3393 16.301 20.3393 16.0833C13.0893 23.0833 12.0059 12.1667 12.2559 10.5833C10.8393 11.4167 9.50593 13.75 9.00593 18.25C8.79434 20.1543 9.86612 21.6407 10.8825 23.0503C12.2679 24.9717 13.5504 26.7504 11.3393 29.25C8.27259 32.7167 5.28371 29.6944 4.1726 27.75C3.58927 30 4.33927 35.75 8.6726 37.5C12.1393 38.9 13.1726 42.1944 13.2559 43.6667C16.5629 44.08 17.104 44.575 17.9249 45.3259C18.0969 45.4833 18.2813 45.6519 18.5059 45.8333C20.6726 47.5833 23.6726 47.25 24.9226 45.8333C25.8599 44.7711 24.7559 44.25 23.0893 43.9167C22.7826 43.8553 22.4911 43.8141 22.2109 43.7744H22.2108C21.3487 43.6524 20.594 43.5456 19.8393 42.9167C17.7559 41.1667 19.6726 39.3333 20.3393 39.0833ZM21.1667 33.5833C22.5667 35.45 21.5833 37.25 20.9167 37.9167C21.05 37.45 20.3056 36.3333 19.9167 35.8333V37.6667C18.7134 37.1264 17.5174 36.7599 16.4288 36.4262L16.4288 36.4262C13.8233 35.6276 11.8333 35.0177 11.8333 32.6667C12.3333 33.25 13.0833 33.3333 13.8333 33.3333C13.3333 33.0833 12.4167 30.5833 13.9167 29.4167C15.1232 32.1589 15.7884 32.4827 17.1949 33.1676C17.9255 33.5233 18.8562 33.9765 20.1667 34.9167C21.0231 35.5311 21.1944 34.1111 21.1667 33.5833ZM32.2953 37.9167C31.6286 37.25 30.6453 35.45 32.0453 33.5833C32.0175 34.1111 32.1888 35.5311 33.0453 34.9167C34.3558 33.9765 35.2865 33.5233 36.0171 33.1676C37.4236 32.4827 38.0887 32.1589 39.2953 29.4167C40.7953 30.5833 39.8786 33.0833 39.3786 33.3333C40.1286 33.3333 40.8786 33.25 41.3786 32.6667C41.3786 35.0177 39.3887 35.6276 36.7831 36.4262C35.6946 36.7599 34.4985 37.1264 33.2953 37.6667V35.8333C32.9064 36.3333 32.162 37.45 32.2953 37.9167Z" fill="white"/>
</g>
<defs>
<filter id="filter0_d_743_156" x="-0.00012207" y="0" width="53.3335" height="60" filterUnits="userSpaceOnUse" color-interpolation-filters="sRGB">
<feFlood flood-opacity="0" result="BackgroundImageFix"/>
<feColorMatrix in="SourceAlpha" type="matrix" values="0 0 0 0 0 0 0 0 0 0 0 0 0 0 0 0 0 0 127 0" result="hardAlpha"/>
<feOffset dy="4"/>
<feGaussianBlur stdDeviation="2"/>
<feColorMatrix type="matrix" values="0 0 0 0 0 0 0 0 0 0 0 0 0 0 0 0 0 0 0.5 0"/>
<feBlend mode="normal" in2="BackgroundImageFix" result="effect1_dropShadow_743_156"/>
<feBlend mode="normal" in="SourceGraphic" in2="effect1_dropShadow_743_156" result="shape"/>
</filter>
</defs>
</svg>
